<svg width="71" height="40" viewBox="0 0 71 40" fill="none" xmlns="http://www.w3.org/2000/svg">
<g id="Pasted-20240102-153325 1" clip-path="url(#clip0_924_50007)">
<g id="Group">
<path id="Vector" d="M26.5409 19.9228C26.5409 16.6763 25.2512 13.5628 22.9556 11.2672C20.66 8.97155 17.5465 7.68188 14.3 7.68188C11.0535 7.68188 7.93998 8.97155 5.64436 11.2672C3.34875 13.5628 2.05908 16.6763 2.05908 19.9228C2.05908 23.1693 3.34875 26.2828 5.64436 28.5784C7.93998 30.874 11.0535 32.1637 14.3 32.1637C17.5465 32.1637 20.66 30.874 22.9556 28.5784C25.2512 26.2828 26.5409 23.1693 26.5409 19.9228Z" stroke="#92450F" stroke-width="2"/>
<path id="Vector_2" d="M7.28202 17.3683C5.30474 18.6501 5.22974 21.3797 7.29111 22.6024C7.35626 22.6403 7.37899 22.6956 7.35929 22.7683C6.88505 24.5623 7.37747 25.8827 8.83656 26.7297C9.61384 27.1812 10.5025 27.2486 11.5025 26.932C11.5767 26.9077 11.635 26.9289 11.6775 26.9956C12.4275 28.2032 13.4987 28.6903 14.8911 28.457C15.7805 28.3085 16.4593 27.8161 16.9275 26.9797C16.9669 26.91 17.0244 26.8873 17.1002 26.9115C19.8502 27.8024 22.0866 25.4433 21.2411 22.7388C21.2326 22.7121 21.2339 22.6832 21.2447 22.657C21.2555 22.6309 21.2751 22.6092 21.3002 22.5956C23.3752 21.4615 23.3002 18.4911 21.2979 17.3774C21.2252 17.338 21.2002 17.2782 21.2229 17.1979C21.6547 15.7615 21.3767 14.5926 20.3888 13.6911C19.4843 12.8668 18.3873 12.6494 17.0979 13.0388C17.0131 13.0645 16.9479 13.0388 16.9025 12.9615C15.6661 10.9115 12.9025 10.9933 11.6707 12.9842C11.6297 13.0509 11.5714 13.0736 11.4957 13.0524C9.75626 12.5645 8.44641 13.0547 7.56611 14.5229C7.11762 15.2698 7.04717 16.1517 7.35474 17.1683C7.3805 17.2532 7.35626 17.3198 7.28202 17.3683Z" stroke="#927A68" stroke-width="2"/>
<path id="Vector_3" d="M12.3479 13.3797C13.2684 14.2797 14.6706 14.7592 15.7729 13.791C15.9744 13.6123 16.1926 13.4592 16.4275 13.332C16.4488 13.3204 16.4675 13.3047 16.4825 13.2856C16.4974 13.2666 16.5084 13.2447 16.5145 13.2212C16.5207 13.1978 16.522 13.1734 16.5184 13.1494C16.5147 13.1254 16.5062 13.1025 16.4934 13.082C15.3979 11.3206 13.2411 11.4024 12.0775 13.107C12.0366 13.1645 12.0464 13.2115 12.107 13.2479C12.1237 13.2585 12.1419 13.266 12.1616 13.2706C12.2328 13.2918 12.2949 13.3282 12.3479 13.3797Z" stroke="#927A68" stroke-width="2"/>
<path id="Vector_4" d="M17.2794 13.9637C17.3294 15.8925 18.3355 16.8887 20.2976 16.9523C20.3349 16.9534 20.3715 16.941 20.4006 16.9173C20.4298 16.8935 20.4497 16.86 20.4567 16.8228C20.7143 15.5077 20.3476 14.5561 19.3567 13.9683C18.7726 13.6205 18.0863 13.5683 17.4226 13.766C17.3241 13.7963 17.2764 13.8622 17.2794 13.9637Z" stroke="#927A68" stroke-width="2"/>
<path id="Vector_5" d="M9.29098 13.9592C8.2228 14.5426 7.83871 15.4971 8.13871 16.8229C8.14715 16.8594 8.16787 16.8919 8.19732 16.9147C8.22677 16.9375 8.26311 16.9492 8.30007 16.9479C10.2561 16.9054 11.2667 15.9032 11.3319 13.941C11.3334 13.8607 11.2955 13.8107 11.2183 13.791C10.4789 13.6047 9.83644 13.6607 9.29098 13.9592Z" stroke="#927A68" stroke-width="2"/>
<path id="Vector_6" d="M19.8271 17.5318C19.8604 17.5515 19.8861 17.5477 19.9043 17.5204C19.9513 17.4477 19.9316 17.4076 19.8452 17.4C17.9528 17.2136 16.9316 16.2083 16.7816 14.3841C16.7725 14.2629 16.7255 14.2454 16.6407 14.3318C15.3975 15.5909 13.0589 15.7 11.918 14.2341C11.8634 14.1659 11.8339 14.175 11.8293 14.2614C11.7127 16.1295 10.7172 17.172 8.84296 17.3886C8.74296 17.4008 8.72705 17.4447 8.79523 17.5204C9.98614 18.825 10.1907 21.0136 8.72478 22.2023C8.64296 22.2674 8.65432 22.3053 8.75887 22.3159C10.6604 22.5098 11.6816 23.5295 11.8225 25.375C11.8301 25.4629 11.8649 25.4765 11.9271 25.4159C13.0028 24.3795 14.249 24.1409 15.6657 24.7C16.0642 24.8576 16.4013 25.1083 16.6771 25.4523C16.7483 25.5417 16.7854 25.5295 16.7884 25.4159C16.8217 23.978 17.5111 23.0023 18.8566 22.4886C19.1452 22.3795 19.4702 22.3682 19.7771 22.3477C19.8816 22.3417 19.8998 22.2992 19.8316 22.2204C18.5195 20.7083 18.4983 19.1492 19.768 17.5432C19.7846 17.5235 19.8043 17.5197 19.8271 17.5318Z" stroke="#927A68" stroke-width="2"/>
<path id="Vector_7" d="M7.47269 17.716C5.73859 18.8115 5.76132 20.8819 7.39541 22.1251C7.47572 22.1857 7.5492 22.1782 7.61587 22.1024C8.52041 21.0615 9.24541 19.716 8.16587 18.4456C7.98102 18.2289 7.81511 18.0009 7.66814 17.7615C7.61814 17.6812 7.55299 17.666 7.47269 17.716Z" stroke="#927A68" stroke-width="2"/>
<path id="Vector_8" d="M20.9956 17.7569C20.0387 18.7819 19.4524 20.016 20.3774 21.3251C20.5607 21.5857 20.7592 21.841 20.9728 22.091C21.0304 22.1562 21.0948 22.1653 21.166 22.1183C22.8592 20.9956 22.8251 18.9365 21.2296 17.7365C21.1463 17.6728 21.0683 17.6796 20.9956 17.7569Z" stroke="#927A68" stroke-width="2"/>
<path id="Vector_9" d="M8.15022 23.0341C7.68886 24.9363 9.21613 26.7363 11.2025 26.0613C11.2798 26.0356 11.3176 25.9826 11.3161 25.9022C11.2873 23.9659 10.2896 22.9659 8.32295 22.9022C8.23053 22.8992 8.17295 22.9432 8.15022 23.0341Z" stroke="#927A68" stroke-width="2"/>
<path id="Vector_10" d="M17.5159 24.5638C17.3371 24.9714 17.2629 25.4184 17.2932 25.9047C17.3008 26.029 17.3659 26.0979 17.4887 26.1116C19.2114 26.307 20.2265 25.6608 20.5341 24.1729C20.6053 23.8305 20.5826 23.4608 20.4659 23.0638C20.4447 22.9896 20.3947 22.9494 20.3159 22.9434C18.9659 22.8479 18.0326 23.3881 17.5159 24.5638Z" stroke="#927A68" stroke-width="2"/>
<path id="Vector_11" d="M16.4953 26.6297C15.5067 25.7569 14.3885 25.0865 13.1067 25.8774C12.7597 26.0895 12.4166 26.3418 12.0772 26.6342C12.0453 26.6615 12.0408 26.6926 12.0635 26.7274C13.2158 28.4569 15.3135 28.5206 16.5135 26.7933C16.5559 26.7327 16.5499 26.6782 16.4953 26.6297Z" stroke="#927A68" stroke-width="2"/>
</g>
<path id="Vector_12" d="M28.0388 19.9249C28.0388 21.7291 27.6834 23.5156 26.993 25.1825C26.3026 26.8493 25.2906 28.3638 24.0148 29.6396C22.7391 30.9154 21.2246 31.9273 19.5577 32.6178C17.8909 33.3082 16.1043 33.6636 14.3002 33.6636C10.6564 33.6636 7.16197 32.2161 4.58548 29.6396C2.00898 27.0631 0.561523 23.5686 0.561523 19.9249C0.561523 16.2812 2.00898 12.7867 4.58548 10.2102C7.16197 7.63374 10.6564 6.18628 14.3002 6.18628C16.1043 6.18628 17.8909 6.54164 19.5577 7.23207C21.2246 7.9225 22.7391 8.93448 24.0148 10.2102C25.2906 11.486 26.3026 13.0005 26.993 14.6674C27.6834 16.3342 28.0388 18.1207 28.0388 19.9249ZM26.5411 19.9226C26.5411 16.6762 25.2514 13.5626 22.9558 11.267C20.6602 8.9714 17.5467 7.68173 14.3002 7.68173C11.0537 7.68173 7.94015 8.9714 5.64453 11.267C3.34891 13.5626 2.05925 16.6762 2.05925 19.9226C2.05925 23.1691 3.34891 26.2827 5.64453 28.5783C7.94015 30.8739 11.0537 32.1636 14.3002 32.1636C17.5467 32.1636 20.6602 30.8739 22.9558 28.5783C25.2514 26.2827 26.5411 23.1691 26.5411 19.9226Z" fill="#FF7618"/>
<path id="Vector_13" d="M26.5409 19.9228C26.5409 23.1693 25.2512 26.2828 22.9556 28.5784C20.66 30.874 17.5465 32.1637 14.3 32.1637C11.0535 32.1637 7.93998 30.874 5.64436 28.5784C3.34875 26.2828 2.05908 23.1693 2.05908 19.9228C2.05908 16.6763 3.34875 13.5628 5.64436 11.2672C7.93998 8.97155 11.0535 7.68188 14.3 7.68188C17.5465 7.68188 20.66 8.97155 22.9556 11.2672C25.2512 13.5628 26.5409 16.6763 26.5409 19.9228ZM7.28181 17.3682C5.30454 18.6501 5.22954 21.3796 7.2909 22.6023C7.35605 22.6402 7.37878 22.6955 7.35908 22.7682C6.88484 24.5622 7.37726 25.8826 8.83635 26.7296C9.61363 27.1811 10.5023 27.2486 11.5023 26.9319C11.5765 26.9076 11.6348 26.9289 11.6773 26.9955C12.4273 28.2031 13.4985 28.6902 14.8909 28.4569C15.7803 28.3084 16.4591 27.816 16.9273 26.9796C16.9667 26.9099 17.0242 26.8872 17.1 26.9114C19.85 27.8023 22.0864 25.4432 21.2409 22.7387C21.2324 22.712 21.2337 22.6831 21.2445 22.657C21.2553 22.6308 21.2749 22.6091 21.3 22.5955C23.375 21.4614 23.3 18.491 21.2977 17.3773C21.225 17.3379 21.2 17.2781 21.2227 17.1978C21.6545 15.7614 21.3765 14.5925 20.3886 13.691C19.4841 12.8667 18.3871 12.6493 17.0977 13.0387C17.0129 13.0645 16.9477 13.0387 16.9023 12.9614C15.6659 10.9114 12.9023 10.9932 11.6704 12.9842C11.6295 13.0508 11.5712 13.0736 11.4954 13.0523C9.75605 12.5645 8.4462 13.0546 7.5659 14.5228C7.11742 15.2698 7.04696 16.1516 7.35454 17.1682C7.38029 17.2531 7.35605 17.3198 7.28181 17.3682Z" fill="#241405"/>
<path id="Vector_14" d="M7.35474 17.1681C7.04717 16.1514 7.11762 15.2696 7.56611 14.5226C8.44641 13.0544 9.75626 12.5643 11.4957 13.0522C11.5714 13.0734 11.6297 13.0507 11.6707 12.984C12.9025 10.9931 15.6661 10.9113 16.9025 12.9613C16.9479 13.0385 17.0131 13.0643 17.0979 13.0385C18.3873 12.6491 19.4843 12.8666 20.3888 13.6908C21.3767 14.5923 21.6547 15.7613 21.2229 17.1976C21.2002 17.2779 21.2252 17.3378 21.2979 17.3772C23.3002 18.4908 23.3752 21.4613 21.3002 22.5954C21.2751 22.6089 21.2555 22.6307 21.2447 22.6568C21.2339 22.6829 21.2326 22.7118 21.2411 22.7385C22.0866 25.4431 19.8502 27.8022 17.1002 26.9113C17.0244 26.887 16.9669 26.9097 16.9275 26.9794C16.4593 27.8158 15.7805 28.3082 14.8911 28.4567C13.4987 28.69 12.4275 28.2029 11.6775 26.9954C11.635 26.9287 11.5767 26.9075 11.5025 26.9317C10.5025 27.2484 9.61384 27.181 8.83656 26.7294C7.37747 25.8825 6.88505 24.562 7.35929 22.7681C7.37899 22.6954 7.35626 22.64 7.29111 22.6022C5.22974 21.3794 5.30474 18.6499 7.28202 17.3681C7.35626 17.3196 7.3805 17.2529 7.35474 17.1681ZM12.3479 13.3794C13.2684 14.2794 14.6707 14.759 15.7729 13.7908C15.9744 13.612 16.1926 13.459 16.4275 13.3317C16.4488 13.3202 16.4675 13.3044 16.4825 13.2854C16.4975 13.2663 16.5084 13.2444 16.5145 13.221C16.5207 13.1976 16.522 13.1731 16.5184 13.1492C16.5148 13.1252 16.5062 13.1023 16.4934 13.0817C15.3979 11.3204 13.2411 11.4022 12.0775 13.1067C12.0366 13.1643 12.0464 13.2113 12.107 13.2476C12.1237 13.2582 12.1419 13.2658 12.1616 13.2704C12.2328 13.2916 12.2949 13.3279 12.3479 13.3794ZM17.2797 13.9635C17.3297 15.8923 18.3358 16.8885 20.2979 16.9522C20.3353 16.9533 20.3718 16.9408 20.4009 16.9171C20.4301 16.8933 20.45 16.8598 20.457 16.8226C20.7146 15.5075 20.3479 14.556 19.357 13.9681C18.7729 13.6204 18.0866 13.5681 17.4229 13.7658C17.3244 13.7961 17.2767 13.862 17.2797 13.9635ZM9.29111 13.959C8.22293 14.5423 7.83884 15.4969 8.13883 16.8226C8.14727 16.8592 8.168 16.8917 8.19745 16.9145C8.2269 16.9373 8.26323 16.949 8.3002 16.9476C10.2563 16.9052 11.2669 15.9029 11.332 13.9408C11.3335 13.8605 11.2957 13.8105 11.2184 13.7908C10.479 13.6044 9.83656 13.6605 9.29111 13.959ZM19.8275 17.5317C19.8608 17.5514 19.8866 17.5476 19.9047 17.5204C19.9517 17.4476 19.932 17.4075 19.8457 17.3999C17.9532 17.2135 16.932 16.2082 16.782 14.384C16.7729 14.2628 16.726 14.2454 16.6411 14.3317C15.3979 15.5908 13.0593 15.6999 11.9184 14.234C11.8638 14.1658 11.8343 14.1749 11.8297 14.2613C11.7131 16.1294 10.7176 17.1719 8.84338 17.3885C8.74338 17.4007 8.72747 17.4446 8.79565 17.5204C9.98656 18.8249 10.1911 21.0135 8.7252 22.2022C8.64338 22.2673 8.65474 22.3052 8.75929 22.3158C10.6608 22.5097 11.682 23.5294 11.8229 25.3749C11.8305 25.4628 11.8653 25.4764 11.9275 25.4158C13.0032 24.3794 14.2494 24.1408 15.6661 24.6999C16.0646 24.8575 16.4017 25.1082 16.6775 25.4522C16.7487 25.5416 16.7858 25.5294 16.7888 25.4158C16.8222 23.9779 17.5116 23.0022 18.857 22.4885C19.1457 22.3794 19.4707 22.3681 19.7775 22.3476C19.882 22.3416 19.9002 22.2991 19.832 22.2204C18.5199 20.7082 18.4987 19.1491 19.7684 17.5431C19.785 17.5234 19.8047 17.5196 19.8275 17.5317ZM7.47293 17.7158C5.73883 18.8113 5.76156 20.8817 7.39565 22.1249C7.47596 22.1855 7.54944 22.1779 7.61611 22.1022C8.52065 21.0613 9.24565 19.7158 8.16611 18.4454C7.98126 18.2287 7.81535 18.0007 7.66838 17.7613C7.61838 17.681 7.55323 17.6658 7.47293 17.7158ZM20.9957 17.7567C20.0388 18.7817 19.4525 20.0158 20.3775 21.3249C20.5608 21.5855 20.7593 21.8408 20.9729 22.0908C21.0305 22.156 21.0949 22.165 21.1661 22.1181C22.8593 20.9954 22.8252 18.9363 21.2297 17.7363C21.1464 17.6726 21.0684 17.6794 20.9957 17.7567ZM8.1502 23.034C7.68883 24.9363 9.21611 26.7363 11.2025 26.0613C11.2797 26.0355 11.3176 25.9825 11.3161 25.9022C11.2873 23.9658 10.2896 22.9658 8.32293 22.9022C8.2305 22.8991 8.17293 22.9431 8.1502 23.034ZM17.5161 24.5635C17.3373 24.9711 17.2631 25.4181 17.2934 25.9044C17.301 26.0287 17.3661 26.0976 17.4888 26.1113C19.2116 26.3067 20.2267 25.6605 20.5343 24.1726C20.6055 23.8302 20.5828 23.4605 20.4661 23.0635C20.4449 22.9893 20.3949 22.9491 20.3161 22.9431C18.9661 22.8476 18.0328 23.3878 17.5161 24.5635ZM16.4957 26.6294C15.507 25.7567 14.3888 25.0863 13.107 25.8772C12.76 26.0893 12.4169 26.3416 12.0775 26.634C12.0457 26.6613 12.0411 26.6923 12.0638 26.7272C13.2161 28.4567 15.3138 28.5204 16.5138 26.7931C16.5563 26.7325 16.5502 26.6779 16.4957 26.6294Z" fill="#FFE0CB"/>
<path id="Vector_15" d="M12.1616 13.2704C12.1419 13.2658 12.1237 13.2582 12.107 13.2476C12.0464 13.2113 12.0366 13.1643 12.0775 13.1067C13.2411 11.4022 15.3979 11.3204 16.4934 13.0817C16.5062 13.1022 16.5147 13.1252 16.5184 13.1492C16.522 13.1731 16.5207 13.1976 16.5145 13.221C16.5084 13.2444 16.4974 13.2663 16.4825 13.2854C16.4675 13.3044 16.4488 13.3202 16.4275 13.3317C16.1926 13.459 15.9744 13.612 15.7729 13.7908C14.6706 14.759 13.2684 14.2794 12.3479 13.3794C12.2949 13.3279 12.2328 13.2916 12.1616 13.2704Z" fill="#241405"/>
<path id="Vector_16" d="M17.2794 13.9637C17.2764 13.8622 17.3241 13.7963 17.4226 13.766C18.0863 13.5683 18.7726 13.6205 19.3567 13.9683C20.3476 14.5561 20.7143 15.5077 20.4567 16.8228C20.4497 16.86 20.4298 16.8935 20.4006 16.9173C20.3715 16.941 20.3349 16.9534 20.2976 16.9523C18.3355 16.8887 17.3294 15.8925 17.2794 13.9637Z" fill="#241405"/>
<path id="Vector_17" d="M9.29098 13.959C9.83644 13.6605 10.4789 13.6044 11.2183 13.7908C11.2955 13.8105 11.3334 13.8605 11.3319 13.9408C11.2667 15.9029 10.2561 16.9052 8.30007 16.9476C8.26311 16.949 8.22677 16.9373 8.19732 16.9145C8.16787 16.8916 8.14715 16.8592 8.13871 16.8226C7.83871 15.4969 8.2228 14.5423 9.29098 13.959Z" fill="#241405"/>
<path id="Vector_18" d="M19.768 17.5432C18.4983 19.1492 18.5195 20.7083 19.8316 22.2204C19.8998 22.2992 19.8816 22.3417 19.7771 22.3477C19.4702 22.3682 19.1452 22.3795 18.8566 22.4886C17.5111 23.0023 16.8217 23.978 16.7884 25.4159C16.7854 25.5295 16.7483 25.5417 16.6771 25.4523C16.4013 25.1083 16.0642 24.8576 15.6657 24.7C14.249 24.1409 13.0028 24.3795 11.9271 25.4159C11.8649 25.4765 11.8301 25.4629 11.8225 25.375C11.6816 23.5295 10.6604 22.5098 8.75887 22.3159C8.65432 22.3053 8.64296 22.2674 8.72478 22.2023C10.1907 21.0136 9.98614 18.825 8.79523 17.5204C8.72705 17.4447 8.74296 17.4008 8.84296 17.3886C10.7172 17.172 11.7127 16.1295 11.8293 14.2614C11.8339 14.175 11.8634 14.1659 11.918 14.2341C13.0589 15.7 15.3975 15.5909 16.6407 14.3318C16.7255 14.2454 16.7725 14.2629 16.7816 14.3841C16.9316 16.2083 17.9528 17.2136 19.8452 17.4C19.9316 17.4076 19.9513 17.4477 19.9043 17.5204C19.8861 17.5477 19.8604 17.5515 19.8271 17.5318C19.8043 17.5197 19.7846 17.5235 19.768 17.5432Z" fill="#241405"/>
<path id="Vector_19" d="M7.39541 22.1249C5.76132 20.8817 5.73859 18.8112 7.47269 17.7158C7.55299 17.6658 7.61814 17.6809 7.66814 17.7612C7.81511 18.0006 7.98102 18.2287 8.16587 18.4453C9.24541 19.7158 8.52041 21.0612 7.61587 22.1022C7.5492 22.1779 7.47572 22.1855 7.39541 22.1249Z" fill="#241405"/>
<path id="Vector_20" d="M20.3774 21.3251C19.4524 20.016 20.0387 18.7819 20.9956 17.7569C21.0683 17.6796 21.1463 17.6728 21.2296 17.7365C22.8251 18.9365 22.8592 20.9956 21.166 22.1183C21.0948 22.1653 21.0304 22.1562 20.9728 22.091C20.7592 21.841 20.5607 21.5857 20.3774 21.3251Z" fill="#241405"/>
<path id="Vector_21" d="M11.2025 26.0613C9.21613 26.7363 7.68886 24.9363 8.15022 23.0341C8.17295 22.9432 8.23053 22.8992 8.32295 22.9022C10.2896 22.9659 11.2873 23.9659 11.3161 25.9022C11.3176 25.9826 11.2798 26.0356 11.2025 26.0613Z" fill="#241405"/>
<path id="Vector_22" d="M17.5159 24.5636C18.0326 23.3878 18.9659 22.8477 20.3159 22.9431C20.3947 22.9492 20.4447 22.9893 20.4659 23.0636C20.5826 23.4606 20.6053 23.8302 20.5341 24.1727C20.2265 25.6605 19.2114 26.3068 17.4887 26.1113C17.3659 26.0977 17.3008 26.0287 17.2932 25.9045C17.2629 25.4181 17.3371 24.9712 17.5159 24.5636Z" fill="#241405"/>
<path id="Vector_23" d="M13.1067 25.8772C14.3885 25.0862 15.5067 25.7567 16.4953 26.6294C16.5499 26.6779 16.5559 26.7325 16.5135 26.7931C15.3135 28.5203 13.2158 28.4567 12.0635 26.7272C12.0408 26.6923 12.0453 26.6613 12.0772 26.634C12.4166 26.3416 12.7597 26.0893 13.1067 25.8772Z" fill="#241405"/>
<g id="Group 1000002175">
<path id="Vector_24" d="M41.1253 10.2196V8.41051C41.1253 8.33475 41.1632 8.29688 41.239 8.29688H41.8071C41.8829 8.29688 41.9208 8.33475 41.9208 8.41051V14.3719C41.9207 14.4161 41.9083 14.4594 41.885 14.4967C41.8617 14.5341 41.8284 14.5641 41.789 14.5832C40.2344 15.3401 38.1571 15.0105 37.9958 12.9423C37.889 11.5855 38.5685 10.6219 39.9276 10.3491C40.2837 10.2779 40.6208 10.2825 40.939 10.3628C40.9611 10.3683 40.9842 10.3688 41.0066 10.3642C41.0289 10.3596 41.0499 10.35 41.0679 10.3362C41.0858 10.3224 41.1004 10.3047 41.1103 10.2845C41.1203 10.2643 41.1254 10.2421 41.1253 10.2196ZM41.0662 13.9241L41.0753 11.3241C41.0756 11.2861 41.0684 11.2483 41.054 11.213C41.0396 11.1777 41.0184 11.1456 40.9916 11.1186C40.9648 11.0915 40.9328 11.0701 40.8977 11.0554C40.8625 11.0408 40.8248 11.0332 40.7867 11.0332L40.2731 11.031C39.8964 11.0298 39.5346 11.1855 39.2674 11.4639C39.0002 11.7422 38.8493 12.1203 38.8481 12.5151V12.7151C38.8474 12.9106 38.8835 13.1043 38.9544 13.2851C39.0252 13.466 39.1293 13.6305 39.2608 13.7691C39.3923 13.9078 39.5485 14.0179 39.7207 14.0933C39.8928 14.1686 40.0774 14.2077 40.264 14.2082L40.7776 14.2105C40.8538 14.2105 40.9268 14.1804 40.9809 14.1268C41.035 14.0731 41.0656 14.0003 41.0662 13.9241Z" fill="#111111"/>
<path id="Vector_25" d="M48.5026 10.4991C49.9458 9.91278 51.3185 10.6423 51.3889 12.2651C51.4867 14.4719 49.5753 15.2219 47.6889 14.7719C47.6157 14.7545 47.5505 14.7127 47.5039 14.6533C47.4573 14.5939 47.432 14.5204 47.4321 14.4446V8.46733C47.4321 8.35369 47.4889 8.29688 47.6026 8.29688H48.198C48.236 8.29688 48.2724 8.31172 48.2993 8.33815C48.3261 8.36457 48.3412 8.40041 48.3412 8.43778V10.3923C48.3412 10.5075 48.395 10.5431 48.5026 10.4991ZM50.5299 12.4582C50.598 11.1696 49.4844 10.7514 48.4458 11.1673C48.3761 11.1946 48.3412 11.2454 48.3412 11.3196V13.981C48.3412 14.0429 48.3657 14.1023 48.4095 14.1465C48.4533 14.1907 48.5128 14.2161 48.5753 14.2173C49.8162 14.237 50.4677 13.6507 50.5299 12.4582Z" fill="#111111"/>
<path id="Vector_26" d="M34.023 12.9474L33.3957 14.7769C33.3906 14.7909 33.3813 14.803 33.3692 14.8115C33.357 14.8201 33.3424 14.8247 33.3276 14.8247L32.6548 14.8315C32.6434 14.8314 32.6322 14.8285 32.6221 14.8232C32.6119 14.8179 32.6032 14.8103 32.5966 14.801C32.5899 14.7917 32.5856 14.781 32.5838 14.7697C32.5821 14.7584 32.5831 14.7469 32.5867 14.736L34.6957 8.91104C34.7009 8.89706 34.7101 8.88499 34.7223 8.87646C34.7345 8.86793 34.749 8.86334 34.7639 8.86331H35.6503C35.6656 8.86286 35.6806 8.86723 35.6932 8.8758C35.7059 8.88436 35.7155 8.89669 35.7207 8.91104L37.8117 14.736C37.8152 14.7469 37.8162 14.7584 37.8145 14.7697C37.8127 14.781 37.8084 14.7917 37.8018 14.801C37.7951 14.8103 37.7864 14.8179 37.7762 14.8232C37.7661 14.8285 37.7549 14.8314 37.7435 14.8315L37.0071 14.8224C36.9922 14.8224 36.9777 14.8178 36.9655 14.8093C36.9533 14.8007 36.944 14.7887 36.9389 14.7747L36.2662 12.9474C36.2611 12.9334 36.2518 12.9214 36.2396 12.9128C36.2274 12.9043 36.2129 12.8997 36.198 12.8997L34.0912 12.8974C34.076 12.8976 34.0613 12.9025 34.0491 12.9115C34.0369 12.9204 34.0278 12.933 34.023 12.9474ZM34.2321 12.1201C34.2285 12.1307 34.2275 12.1419 34.2291 12.1529C34.2307 12.164 34.2348 12.1745 34.2413 12.1835C34.2477 12.1926 34.2562 12.2001 34.2661 12.2053C34.2759 12.2104 34.2869 12.2132 34.298 12.2133L35.8503 12.2179C35.8616 12.2181 35.8728 12.2156 35.883 12.2106C35.8932 12.2056 35.902 12.1982 35.9086 12.189C35.9153 12.1799 35.9197 12.1693 35.9214 12.1581C35.9231 12.1469 35.9221 12.1354 35.9185 12.1247L35.1503 9.8474C35.1457 9.83323 35.1368 9.82086 35.1247 9.81209C35.1127 9.80332 35.0981 9.7986 35.0832 9.7986C35.0683 9.7986 35.0538 9.80332 35.0418 9.81209C35.0297 9.82086 35.0208 9.83323 35.0162 9.8474L34.2321 12.1201Z" fill="#111111"/>
<path id="Vector_27" d="M46.8274 12.9486C46.8274 13.4591 46.6246 13.9488 46.2636 14.3098C45.9026 14.6708 45.413 14.8736 44.9024 14.8736H44.5524C44.0419 14.8736 43.5523 14.6708 43.1913 14.3098C42.8303 13.9488 42.6274 13.4591 42.6274 12.9486V12.2531C42.6274 11.7426 42.8303 11.253 43.1913 10.8919C43.5523 10.5309 44.0419 10.3281 44.5524 10.3281H44.9024C45.413 10.3281 45.9026 10.5309 46.2636 10.8919C46.6246 11.253 46.8274 11.7426 46.8274 12.2531V12.9486ZM44.7784 14.28C44.9512 14.2764 45.1214 14.2295 45.2792 14.142C45.4371 14.0545 45.5795 13.9281 45.6984 13.7701C45.8173 13.612 45.9104 13.4253 45.9722 13.2208C46.0341 13.0162 46.0636 12.7977 46.059 12.5778C46.0497 12.1337 45.9021 11.7107 45.6488 11.4018C45.3955 11.0929 45.0572 10.9235 44.7083 10.9308C44.5355 10.9344 44.3653 10.9813 44.2075 11.0688C44.0496 11.1563 43.9072 11.2827 43.7883 11.4407C43.6694 11.5988 43.5763 11.7854 43.5145 11.99C43.4526 12.1946 43.4231 12.413 43.4277 12.633C43.437 13.0771 43.5846 13.5001 43.8379 13.809C44.0912 14.1179 44.4295 14.2873 44.7784 14.28Z" fill="#111111"/>
<path id="Vector_28" d="M52.707 12.9006C52.8366 14.2688 54.2252 14.462 55.257 13.9597C55.3449 13.9173 55.3888 13.9446 55.3888 14.0415L55.3866 14.5302C55.3866 14.6423 55.3343 14.7173 55.2297 14.7552C54.0525 15.1915 52.4707 15.037 51.9957 13.6643C51.6972 12.7961 51.7578 11.9999 52.1775 11.2756C52.7525 10.2847 54.2411 10.0256 55.0957 10.8188C55.5396 11.2294 55.729 11.7991 55.6638 12.5279C55.6472 12.7052 55.5502 12.793 55.3729 12.7915L52.8252 12.7711C52.7373 12.7696 52.6979 12.8127 52.707 12.9006ZM52.8275 12.1665L54.8684 12.1484C54.8859 12.1484 54.9026 12.1414 54.915 12.129C54.9273 12.1167 54.9343 12.0999 54.9343 12.0824V12.0415C54.9331 11.8998 54.904 11.7596 54.8488 11.6291C54.7936 11.4986 54.7132 11.3802 54.6123 11.2808C54.5115 11.1814 54.392 11.1029 54.2609 11.0498C54.1297 10.9966 53.9894 10.9699 53.8479 10.9711H53.8297C53.6883 10.9723 53.5484 11.0014 53.4182 11.0567C53.2879 11.1121 53.1698 11.1926 53.0706 11.2937C52.9714 11.3948 52.8931 11.5145 52.8401 11.6459C52.787 11.7773 52.7604 11.9179 52.7616 12.0597V12.1006C52.7616 12.1093 52.7633 12.1178 52.7666 12.1258C52.7699 12.1338 52.7747 12.1411 52.7809 12.1472C52.787 12.1533 52.7943 12.1582 52.8022 12.1615C52.8102 12.1648 52.8188 12.1665 52.8275 12.1665Z" fill="#111111"/>
<path id="Vector_29" d="M52.9274 17.5951C53.1986 17.5951 53.4183 17.3753 53.4183 17.1042C53.4183 16.8331 53.1986 16.6133 52.9274 16.6133C52.6563 16.6133 52.4365 16.8331 52.4365 17.1042C52.4365 17.3753 52.6563 17.5951 52.9274 17.5951Z" fill="#111111"/>
<path id="Vector_30" d="M33.3412 17.5299V19.2299C33.3412 19.2534 33.3505 19.276 33.3671 19.2926C33.3838 19.3092 33.4063 19.3185 33.4298 19.3185H35.698C35.7098 19.3185 35.7215 19.3209 35.7324 19.3255C35.7434 19.3301 35.7532 19.3368 35.7615 19.3453C35.7697 19.3538 35.7762 19.3638 35.7805 19.3748C35.7849 19.3858 35.7869 19.3976 35.7866 19.4094L35.7707 19.9685C35.7701 19.9916 35.7605 20.0136 35.744 20.0297C35.7274 20.0459 35.7052 20.0549 35.6821 20.0549L33.4298 20.0572C33.4063 20.0572 33.3838 20.0665 33.3671 20.0831C33.3505 20.0998 33.3412 20.1223 33.3412 20.1458V22.014C33.3412 22.0375 33.3505 22.06 33.3671 22.0767C33.3838 22.0933 33.4063 22.1026 33.4298 22.1026H36.1571C36.1693 22.1026 36.1814 22.1051 36.1927 22.11C36.2039 22.1148 36.214 22.122 36.2223 22.131C36.2306 22.1399 36.237 22.1505 36.241 22.1621C36.2451 22.1736 36.2467 22.1859 36.2457 22.1981L36.2162 22.6458C36.2145 22.6681 36.2044 22.6889 36.1879 22.7041C36.1715 22.7193 36.1499 22.7277 36.1275 22.7276H32.6912C32.6795 22.7276 32.668 22.7253 32.6573 22.7209C32.6465 22.7164 32.6367 22.7099 32.6285 22.7017C32.6203 22.6934 32.6137 22.6837 32.6093 22.6729C32.6048 22.6622 32.6025 22.6506 32.6025 22.639V16.8504C32.6025 16.8268 32.6119 16.8043 32.6285 16.7877C32.6451 16.7711 32.6677 16.7617 32.6912 16.7617L35.9707 16.764C35.9938 16.764 36.016 16.773 36.0326 16.7891C36.0492 16.8053 36.0588 16.8272 36.0594 16.8504L36.0798 17.3549C36.0801 17.3669 36.078 17.3789 36.0735 17.3901C36.0691 17.4012 36.0624 17.4114 36.0539 17.4199C36.0454 17.4284 36.0352 17.4351 36.0241 17.4395C36.0129 17.444 36.0009 17.4461 35.9889 17.4458L33.4298 17.4413C33.4063 17.4413 33.3838 17.4506 33.3671 17.4672C33.3505 17.4838 33.3412 17.5064 33.3412 17.5299Z" fill="#111111"/>
<path id="Vector_31" d="M50.7707 18.7353C51.1238 18.4065 51.5435 18.2254 52.0298 18.1921C52.148 18.1845 52.2064 18.2391 52.2048 18.3557V18.8148C52.2048 18.9194 52.1526 18.9739 52.048 18.9785C51.5738 18.9982 51.1601 19.1838 50.8071 19.5353C50.7541 19.5883 50.7276 19.6527 50.7276 19.7285V22.6694C50.7276 22.7072 50.7086 22.7262 50.6707 22.7262H50.1026C49.9904 22.7262 49.9344 22.6694 49.9344 22.5557L49.9253 18.3535C49.9253 18.2762 49.9647 18.2376 50.0435 18.2376L50.3753 18.2353C50.4662 18.2338 50.5314 18.2747 50.5707 18.358C50.6192 18.4641 50.6495 18.5754 50.6617 18.6921C50.6707 18.78 50.7071 18.7944 50.7707 18.7353Z" fill="#111111"/>
<path id="Vector_32" d="M59.4435 18.6484C60.5912 17.7393 62.173 18.2438 62.1526 19.8575C62.1405 20.809 62.1412 21.7249 62.1549 22.6052C62.1549 22.687 62.1139 22.7279 62.0321 22.7279H61.4753C61.395 22.7279 61.3549 22.687 61.3549 22.6052C61.3564 21.8552 61.3526 20.9446 61.3435 19.8734C61.3389 19.2029 60.973 18.912 60.3185 18.9416C59.67 18.9688 59.3488 19.2938 59.3549 19.9166C59.3639 20.7408 59.3677 21.6256 59.3662 22.5711C59.3662 22.6756 59.314 22.7279 59.2094 22.7279L58.689 22.7256C58.5799 22.7256 58.5253 22.6719 58.5253 22.5643L58.4844 18.4529C58.4829 18.3484 58.5344 18.2961 58.639 18.2961H59.0321C59.1549 18.2961 59.2283 18.356 59.2526 18.4756L59.2753 18.587C59.298 18.6991 59.3541 18.7196 59.4435 18.6484Z" fill="#111111"/>
<path id="Vector_33" d="M64.1617 21.7442C64.6072 22.1829 65.4299 22.2192 65.9526 21.8942C65.9641 21.887 65.977 21.8823 65.9905 21.8807C66.004 21.8791 66.0177 21.8805 66.0305 21.8849C66.0434 21.8893 66.0551 21.8964 66.0649 21.9059C66.0746 21.9154 66.082 21.9269 66.0867 21.9397C66.2549 22.4064 66.1079 22.6753 65.6458 22.7465C64.4981 22.9215 63.3981 22.7215 62.9663 21.4874C62.764 20.9079 62.7504 20.0329 63.0163 19.4874C63.5647 18.3662 64.5723 17.9814 66.039 18.3329C66.0602 18.3374 66.0731 18.3503 66.0776 18.3715C66.1337 18.6245 66.1435 18.8723 66.1072 19.1147C66.1057 19.1283 66.0981 19.1329 66.0844 19.1283C64.7602 18.6586 63.9693 19.0314 63.7117 20.2465C63.5875 20.8283 63.7375 21.3276 64.1617 21.7442Z" fill="#111111"/>
<path id="Vector_34" d="M41.8072 22.9018L41.8094 24.6745C41.8094 24.7245 41.7844 24.7518 41.7344 24.7563L41.1163 24.8041C41.0466 24.8086 41.0117 24.776 41.0117 24.7063V18.7632C41.0117 18.6904 41.0458 18.6404 41.114 18.6132C41.7867 18.3541 42.4291 18.2336 43.0413 18.2518C44.139 18.2859 44.8935 19.1382 44.9185 20.2132C44.9458 21.4465 44.3867 22.2677 43.2413 22.6768C42.8117 22.8313 42.3822 22.7836 41.9344 22.7745C41.9178 22.7742 41.9013 22.7773 41.8859 22.7835C41.8705 22.7898 41.8564 22.7991 41.8446 22.811C41.8328 22.8228 41.8233 22.837 41.8169 22.8526C41.8105 22.8681 41.8072 22.8849 41.8072 22.9018ZM41.7504 19.2541L41.7458 21.8586C41.7458 21.901 41.7542 21.943 41.7704 21.9821C41.7866 22.0213 41.8104 22.0568 41.8403 22.0868C41.8703 22.1168 41.9059 22.1405 41.945 22.1568C41.9842 22.173 42.0262 22.1813 42.0685 22.1813L42.4867 22.1836C42.6891 22.1839 42.8895 22.1449 43.0766 22.0688C43.2637 21.9926 43.4337 21.8809 43.577 21.7399C43.7203 21.5989 43.834 21.4315 43.9117 21.2471C43.9895 21.0628 44.0296 20.8651 44.0299 20.6654V20.4563C44.0305 20.0531 43.8687 19.6661 43.5802 19.3806C43.2916 19.095 42.8999 18.9342 42.4913 18.9336L42.0731 18.9313C41.9875 18.9313 41.9054 18.9653 41.8449 19.0259C41.7844 19.0864 41.7504 19.1685 41.7504 19.2541Z" fill="#111111"/>
<path id="Vector_35" d="M46.1708 20.768C46.1966 21.2604 46.3845 21.6165 46.7345 21.8362C47.3314 22.2104 48.0208 22.2044 48.8026 21.818C48.8043 21.8173 48.806 21.8169 48.8078 21.817C48.8096 21.8171 48.8113 21.8176 48.8129 21.8185C48.8144 21.8194 48.8158 21.8206 48.8167 21.8221C48.8177 21.8236 48.8183 21.8253 48.8185 21.8271C48.8519 22.0483 48.8625 22.2688 48.8504 22.4885C48.8489 22.5324 48.8284 22.565 48.789 22.5862C48.5178 22.7377 48.1792 22.8256 47.7731 22.8498C46.4845 22.9271 45.5504 22.3953 45.3322 21.1135C45.0845 19.6635 45.7754 18.2044 47.4299 18.2635C48.6004 18.3066 49.2231 19.2975 49.1345 20.4044C49.1296 20.4728 49.0999 20.5372 49.0509 20.5853C49.0019 20.6334 48.9371 20.662 48.8685 20.6657C48.0352 20.7142 47.1829 20.7036 46.3117 20.6339C46.2132 20.6263 46.1663 20.671 46.1708 20.768ZM46.289 20.068L48.3299 20.0453C48.347 20.0447 48.3632 20.0375 48.3751 20.0252C48.3869 20.0129 48.3936 19.9965 48.3935 19.9794V19.9362C48.3921 19.7947 48.3627 19.6549 48.3072 19.5248C48.2517 19.3946 48.1711 19.2767 48.07 19.1777C47.9689 19.0788 47.8493 19.0007 47.718 18.9479C47.5868 18.8952 47.4464 18.8688 47.3049 18.8703H47.2867C47.1453 18.8718 47.0055 18.9011 46.8753 18.9566C46.7452 19.0121 46.6273 19.0927 46.5283 19.1938C46.4293 19.2949 46.3512 19.4145 46.2985 19.5458C46.2457 19.6771 46.2193 19.8174 46.2208 19.9589V20.0021C46.2208 20.0109 46.2226 20.0197 46.226 20.0278C46.2295 20.036 46.2346 20.0434 46.2409 20.0495C46.2473 20.0557 46.2548 20.0605 46.2631 20.0637C46.2713 20.0668 46.2802 20.0683 46.289 20.068Z" fill="#111111"/>
<path id="Vector_36" d="M55.1409 20.6476C54.7879 20.6218 54.6947 20.765 54.8614 21.0771C54.972 21.2816 55.0379 21.4044 55.0591 21.4453C55.1411 21.5973 55.2547 21.7299 55.3923 21.8342C55.53 21.9384 55.6884 22.012 55.8568 22.0498C56.3765 22.1665 56.8796 22.1029 57.3659 21.8589C57.4538 21.815 57.497 21.8415 57.4955 21.9385L57.4864 22.4612C57.4849 22.5657 57.4341 22.6347 57.3341 22.668C55.8909 23.1385 54.3046 22.843 53.9932 21.1021C53.8205 20.1316 54.0818 18.9657 55.0114 18.4885C55.5099 18.2309 56.0083 18.1786 56.5068 18.3316C57.4462 18.6195 57.8667 19.3513 57.7682 20.5271C57.7621 20.6119 57.7159 20.6566 57.6296 20.6612C56.7553 20.7097 55.9258 20.7051 55.1409 20.6476ZM54.9432 20.0657L56.9841 20.0476C57.0016 20.0476 57.0184 20.0406 57.0307 20.0282C57.0431 20.0159 57.05 19.9991 57.05 19.9816V19.9339C57.0488 19.7925 57.0199 19.6526 56.965 19.5224C56.9101 19.3921 56.8303 19.274 56.73 19.1748C56.6298 19.0757 56.5111 18.9973 56.3808 18.9443C56.2505 18.8912 56.111 18.8645 55.9705 18.8657H55.9387C55.7981 18.8669 55.6591 18.896 55.5297 18.9512C55.4003 19.0064 55.2829 19.0868 55.1844 19.1877C55.0858 19.2885 55.008 19.408 54.9553 19.5391C54.9026 19.6703 54.8761 19.8106 54.8773 19.9521V19.9998C54.8773 20.0085 54.879 20.0171 54.8823 20.025C54.8856 20.033 54.8905 20.0403 54.8966 20.0464C54.9027 20.0526 54.91 20.0574 54.918 20.0607C54.926 20.064 54.9345 20.0657 54.9432 20.0657Z" fill="#111111"/>
<path id="Vector_37" d="M67.2481 20.8042C67.4571 22.0837 68.6753 22.411 69.7935 21.8792C69.8981 21.8292 69.9481 21.8618 69.9435 21.9769L69.9276 22.4292C69.9215 22.5519 69.8617 22.6337 69.7481 22.6747C69.3026 22.8337 68.8185 22.8906 68.2958 22.8451C67.3821 22.7678 66.7867 22.2997 66.5094 21.4406C66.3321 20.8906 66.3571 20.0906 66.564 19.5315C67.0367 18.2519 68.7208 17.786 69.6981 18.7747C70.142 19.2231 70.3071 19.8125 70.1935 20.5428C70.1784 20.6413 70.1215 20.6898 70.0231 20.6883L67.3617 20.6724C67.2723 20.6709 67.2344 20.7148 67.2481 20.8042ZM67.3753 20.0701L69.4299 20.0474C69.4464 20.0468 69.462 20.0398 69.4734 20.028C69.4849 20.0161 69.4912 20.0002 69.4912 19.9837V19.9451C69.4897 19.8027 69.4603 19.6621 69.4047 19.5311C69.3491 19.4002 69.2683 19.2815 69.167 19.1819C69.0657 19.0823 68.9459 19.0037 68.8143 18.9506C68.6828 18.8975 68.5421 18.8709 68.4003 18.8724H68.3776C68.2358 18.8739 68.0957 18.9034 67.9653 18.9592C67.8349 19.0151 67.7167 19.0962 67.6175 19.1979C67.5183 19.2996 67.4401 19.42 67.3872 19.5521C67.3343 19.6842 67.3079 19.8255 67.3094 19.9678V20.0065C67.3094 20.015 67.3111 20.0235 67.3145 20.0314C67.3178 20.0392 67.3227 20.0464 67.3288 20.0523C67.335 20.0582 67.3423 20.0629 67.3503 20.0659C67.3583 20.069 67.3668 20.0704 67.3753 20.0701Z" fill="#111111"/>
<path id="Vector_38" d="M38.3731 21.0833L37.3731 22.681C37.3641 22.6951 37.3517 22.7067 37.337 22.7147C37.3223 22.7226 37.3057 22.7267 37.289 22.7264L36.5776 22.7242C36.56 22.7239 36.5429 22.7189 36.5279 22.7096C36.5129 22.7004 36.5007 22.6873 36.4926 22.6717C36.4844 22.6561 36.4806 22.6386 36.4816 22.621C36.4826 22.6035 36.4883 22.5865 36.4981 22.5719L37.8754 20.556C37.8861 20.5403 37.892 20.5219 37.8924 20.5029C37.8928 20.4839 37.8877 20.4653 37.8776 20.4492L36.5981 18.4537C36.5888 18.439 36.5836 18.422 36.583 18.4046C36.5824 18.3872 36.5865 18.3699 36.5949 18.3546C36.6032 18.3393 36.6155 18.3265 36.6305 18.3176C36.6454 18.3086 36.6625 18.3038 36.6799 18.3037L37.4595 18.2992C37.4764 18.2991 37.4931 18.3035 37.5078 18.3119C37.5226 18.3203 37.5349 18.3323 37.5435 18.3469L38.4799 19.8719C38.4885 19.8861 38.5006 19.8979 38.515 19.9062C38.5294 19.9144 38.5456 19.9189 38.5622 19.9191C38.5788 19.9193 38.5952 19.9153 38.6098 19.9075C38.6245 19.8996 38.6369 19.8881 38.6458 19.8742L39.6322 18.3423C39.6411 18.3282 39.6536 18.3166 39.6683 18.3086C39.683 18.3007 39.6995 18.2966 39.7163 18.2969L40.3754 18.2992C40.3931 18.299 40.4106 18.3037 40.4259 18.3128C40.4412 18.3219 40.4538 18.335 40.4622 18.3506C40.4706 18.3663 40.4746 18.384 40.4737 18.4017C40.4728 18.4195 40.4671 18.4367 40.4572 18.4514L39.1322 20.406C39.1213 20.4221 39.1155 20.4411 39.1155 20.4605C39.1155 20.48 39.1213 20.4989 39.1322 20.5151L40.5708 22.5764C40.5814 22.5912 40.5876 22.6086 40.5888 22.6267C40.59 22.6449 40.5862 22.663 40.5777 22.679C40.5692 22.6951 40.5564 22.7084 40.5407 22.7176C40.5251 22.7268 40.5072 22.7314 40.489 22.731L39.6481 22.7173C39.6323 22.7171 39.6169 22.713 39.603 22.7055C39.5892 22.698 39.5773 22.6872 39.5685 22.6742L38.539 21.0833C38.5302 21.0692 38.518 21.0575 38.5035 21.0495C38.489 21.0414 38.4726 21.0372 38.456 21.0372C38.4394 21.0372 38.4231 21.0414 38.4086 21.0495C38.3941 21.0575 38.3819 21.0692 38.3731 21.0833Z" fill="#111111"/>
<path id="Vector_39" d="M53.1768 18.2981L52.604 18.2971C52.5425 18.297 52.4926 18.3467 52.4925 18.4082L52.4851 22.6173C52.485 22.6788 52.5348 22.7288 52.5963 22.7289L53.169 22.7299C53.2305 22.73 53.2805 22.6802 53.2806 22.6187L53.2879 18.4096C53.288 18.3481 53.2383 18.2982 53.1768 18.2981Z" fill="#111111"/>
<path id="Vector_40" d="M33.6867 26.2435C33.5791 25.8041 33.5026 25.8094 33.4571 26.2594L32.9844 30.9549C32.9793 31.0053 32.9557 31.0519 32.9182 31.0856C32.8808 31.1192 32.8322 31.1375 32.7821 31.1367L32.2798 31.1344C32.1814 31.1344 32.1374 31.0844 32.148 30.9844L32.8435 25.014C32.8541 24.9291 32.9018 24.8867 32.9867 24.8867H33.8708C33.9157 24.8869 33.9593 24.9011 33.9953 24.9272C34.0312 24.9534 34.0577 24.9901 34.0708 25.0322L35.498 29.5435C35.5526 29.7148 35.6086 29.7148 35.6662 29.5435L37.1662 25.0231C37.1965 24.9322 37.2594 24.8867 37.3549 24.8867H38.1798C38.2995 24.8867 38.3662 24.9466 38.3798 25.0663L39.0117 30.964C39.0238 31.0791 38.9715 31.1367 38.8548 31.1367H38.2753C38.1541 31.1352 38.0882 31.0746 38.0776 30.9549L37.648 25.9731C37.6359 25.817 37.6064 25.814 37.5594 25.964L35.9958 30.9981C35.967 31.0905 35.9041 31.1367 35.8071 31.1367H35.3162C35.2086 31.1352 35.1374 31.0844 35.1026 30.9844C34.5238 29.3193 34.0518 27.739 33.6867 26.2435Z" fill="#111111"/>
<path id="Vector_41" d="M45.0597 26.8911C45.4975 26.5229 45.999 26.3714 46.5642 26.4366C47.6528 26.5616 47.9187 27.5002 47.8983 28.4502C47.8786 29.3563 47.8763 30.1919 47.8915 30.957C47.8945 31.0373 47.8559 31.0782 47.7756 31.0797L47.2074 31.0843C47.1301 31.0843 47.0915 31.0457 47.0915 30.9684V28.1934C47.09 27.4798 46.7339 27.151 46.0233 27.207L45.9165 27.2161C45.2983 27.2646 44.9892 27.5994 44.9892 28.2207V30.907C44.9892 31.0191 44.9331 31.076 44.821 31.0775L44.2551 31.082C44.1415 31.082 44.0847 31.026 44.0847 30.9138L44.0733 26.6775C44.0718 26.6063 44.1059 26.5616 44.1756 26.5434C44.5953 26.4358 44.8445 26.5373 44.9233 26.8479C44.946 26.9343 44.9915 26.9487 45.0597 26.8911Z" fill="#111111"/>
<path id="Vector_42" d="M56.1522 27.2608C56.6658 28.6835 55.8249 29.7722 54.3613 29.5267C54.1734 29.4964 54.0802 29.5759 54.0817 29.7653L54.084 30.1085C54.084 30.1396 54.0902 30.1705 54.1023 30.1992C54.1143 30.2279 54.132 30.2539 54.1542 30.2757C54.1764 30.2975 54.2027 30.3146 54.2317 30.3261C54.2606 30.3376 54.2915 30.3432 54.3227 30.3426C55.209 30.3267 56.9317 30.229 56.9726 31.5676C57.0476 33.9744 52.484 33.9085 52.6613 31.7631C52.6999 31.2926 53.0795 31.0449 53.3749 30.7267C53.437 30.66 53.4469 30.5858 53.4045 30.504C53.2363 30.1782 53.2355 29.8403 53.4022 29.4903C53.4401 29.4085 53.4242 29.3396 53.3545 29.2835C53.0863 29.0729 52.9226 28.8078 52.8636 28.4881C52.6651 27.4047 53.0802 26.7335 54.109 26.4744C54.6408 26.3403 55.1658 26.5517 55.7158 26.5381C56.0613 26.5305 56.409 26.529 56.759 26.5335C56.7729 26.5335 56.7867 26.5363 56.7996 26.5417C56.8124 26.5471 56.824 26.555 56.8338 26.5649C56.8435 26.5749 56.8511 26.5867 56.8563 26.5996C56.8614 26.6126 56.8639 26.6264 56.8636 26.6403L56.8613 27.0358C56.8598 27.1055 56.8242 27.1456 56.7545 27.1562C56.5939 27.179 56.431 27.1714 56.2658 27.1335C56.1492 27.1062 56.1113 27.1487 56.1522 27.2608ZM54.224 29.0503C54.3461 29.0812 54.4734 29.0863 54.5987 29.0655C54.724 29.0447 54.8449 28.9982 54.9543 28.9288C55.0637 28.8594 55.1596 28.7684 55.2365 28.661C55.3134 28.5536 55.3698 28.4319 55.4024 28.3029C55.4684 28.0423 55.4337 27.7675 55.3059 27.5391C55.1782 27.3107 54.9679 27.1473 54.7213 27.085C54.5992 27.0541 54.4719 27.0489 54.3466 27.0697C54.2213 27.0905 54.1004 27.137 53.991 27.2064C53.8816 27.2758 53.7857 27.3668 53.7088 27.4742C53.6319 27.5816 53.5755 27.7033 53.5429 27.8323C53.4769 28.093 53.5116 28.3677 53.6394 28.5961C53.7671 28.8245 53.9774 28.9879 54.224 29.0503ZM56.1204 31.9222C56.1204 31.6877 55.9769 31.4628 55.7216 31.297C55.4663 31.1312 55.1201 31.0381 54.759 31.0381C54.398 31.0381 54.0517 31.1312 53.7964 31.297C53.5411 31.4628 53.3976 31.6877 53.3976 31.9222C53.3976 32.1566 53.5411 32.3815 53.7964 32.5473C54.0517 32.7131 54.398 32.8062 54.759 32.8062C55.1201 32.8062 55.4663 32.7131 55.7216 32.5473C55.9769 32.3815 56.1204 32.1566 56.1204 31.9222Z" fill="#111111"/>
<path id="Vector_43" d="M62.673 26.9825C63.0306 26.6189 63.4571 26.4295 63.9526 26.4143C64.0738 26.4098 64.1351 26.4689 64.1367 26.5916V26.9939C64.1367 27.1242 64.0723 27.1923 63.9435 27.1984C63.4798 27.2166 63.0601 27.3939 62.6844 27.7302C62.6298 27.7772 62.6026 27.837 62.6026 27.9098V30.9098C62.6026 30.9855 62.5647 31.0234 62.4889 31.0234H61.8707C61.798 31.0234 61.7617 30.987 61.7617 30.9143L61.7276 26.6484C61.7261 26.5151 61.7904 26.4598 61.9207 26.4825L62.3253 26.5529C62.354 26.5579 62.3814 26.5689 62.4056 26.585C62.4299 26.6012 62.4505 26.6223 62.4661 26.6469C62.4817 26.6715 62.492 26.6991 62.4964 26.728C62.5007 26.7568 62.4989 26.7862 62.4912 26.8143C62.4821 26.8507 62.4806 26.887 62.4867 26.9234C62.5094 27.0658 62.5715 27.0855 62.673 26.9825Z" fill="#111111"/>
<path id="Vector_44" d="M42.3232 28.0057C42.1368 26.8943 40.8345 27.117 40.1414 27.4829C40.0368 27.539 39.9853 27.5079 39.9868 27.3897L39.9891 26.9716C39.9891 26.8625 40.0391 26.7867 40.1391 26.7443C41.63 26.1125 43.2436 26.4829 43.1845 28.4079C43.1603 29.2155 43.1588 29.9753 43.18 30.6875C43.183 30.7784 43.1429 30.8428 43.0595 30.8807C42.2141 31.267 41.3823 31.3511 40.5641 31.1329C39.3141 30.7988 39.1709 29.0125 40.355 28.4829C40.9141 28.2329 41.5868 28.2193 42.1823 28.1829C42.2944 28.1753 42.3414 28.1163 42.3232 28.0057ZM42.2891 30.5147L42.2845 28.9329C42.2845 28.9185 42.2788 28.9046 42.2686 28.8944C42.2583 28.8841 42.2445 28.8784 42.23 28.8784L41.4368 28.8807C41.1566 28.8813 40.8881 28.9641 40.6903 29.1107C40.4926 29.2573 40.3818 29.4558 40.3823 29.6625V29.7943C40.3825 29.8967 40.4101 29.998 40.4635 30.0925C40.5169 30.187 40.5949 30.2728 40.6933 30.3449C40.7916 30.4171 40.9083 30.4743 41.0367 30.5132C41.165 30.552 41.3026 30.5719 41.4414 30.5716L42.2345 30.5693C42.2417 30.5693 42.2488 30.5679 42.2554 30.5651C42.262 30.5624 42.2681 30.5584 42.2731 30.5533C42.2782 30.5482 42.2822 30.5422 42.2849 30.5356C42.2877 30.529 42.2891 30.5219 42.2891 30.5147Z" fill="#111111"/>
<path id="Vector_45" d="M51.246 28.0038C51.1483 26.8993 49.7619 27.1334 49.0142 27.497C48.946 27.5303 48.9119 27.5091 48.9119 27.4334L48.9097 26.8856C48.9097 26.8402 48.9301 26.8084 48.971 26.7902C50.3233 26.1697 52.1528 26.3561 52.1051 28.2743C52.0824 29.1394 52.0809 29.9462 52.1006 30.6947C52.1021 30.7826 52.0627 30.8455 51.9824 30.8834C51.1051 31.2834 49.4688 31.5402 48.7733 30.6652C48.4839 30.2985 48.4021 29.8576 48.5278 29.3425C48.8006 28.2402 50.2278 28.2402 51.096 28.1811C51.2051 28.1735 51.2551 28.1144 51.246 28.0038ZM51.2938 30.3675L51.2824 29.0584C51.2818 29.0075 51.2612 28.959 51.225 28.9232C51.1888 28.8875 51.1401 28.8675 51.0892 28.8675L50.4165 28.8743C50.135 28.8767 49.8658 28.961 49.6681 29.1084C49.4703 29.2559 49.3602 29.4545 49.3619 29.6606V29.8016C49.3628 29.9036 49.3911 30.0045 49.4452 30.0984C49.4994 30.1922 49.5783 30.2772 49.6775 30.3486C49.7767 30.4199 49.8942 30.4762 50.0234 30.5141C50.1525 30.5521 50.2907 30.571 50.4301 30.5697L51.1028 30.5629C51.1282 30.5626 51.1533 30.5573 51.1766 30.5473C51.1999 30.5374 51.2211 30.5229 51.2388 30.5047C51.2565 30.4866 51.2705 30.4651 51.2799 30.4416C51.2894 30.418 51.2941 30.3928 51.2938 30.3675Z" fill="#111111"/>
<path id="Vector_46" d="M57.8933 29.1471C58.0933 30.5857 59.457 30.6857 60.5751 30.2425C60.6782 30.2016 60.7289 30.2365 60.7274 30.3471L60.7229 30.7834C60.7229 30.8986 60.6691 30.9774 60.5615 31.0198C59.6911 31.3675 58.5547 31.3539 57.8479 30.8243C56.1911 29.5834 57.0842 25.9266 59.5502 26.5221C60.5774 26.769 61.0464 27.5122 60.957 28.7516C60.9524 28.8123 60.925 28.869 60.8803 28.9103C60.8356 28.9516 60.7769 28.9745 60.7161 28.9743L58.0411 28.9766C57.9259 28.9781 57.8767 29.0349 57.8933 29.1471ZM58.0479 28.3607L60.1297 28.3425C60.1448 28.3425 60.1592 28.3365 60.1699 28.3259C60.1805 28.3152 60.1865 28.3008 60.1865 28.2857V28.2448C60.184 27.9525 60.0694 27.6731 59.8678 27.4681C59.6662 27.2631 59.3942 27.1493 59.1115 27.1516H59.0479C58.9079 27.1528 58.7695 27.1824 58.6406 27.2389C58.5117 27.2954 58.3948 27.3776 58.2967 27.4808C58.1986 27.584 58.1211 27.7062 58.0686 27.8404C58.0162 27.9746 57.9898 28.1182 57.9911 28.263V28.3039C57.9911 28.319 57.997 28.3334 58.0077 28.3441C58.0184 28.3547 58.0328 28.3607 58.0479 28.3607Z" fill="#111111"/>
</g>
</g>
<defs>
<clipPath id="clip0_924_50007">
<rect width="69.7727" height="40" fill="white" transform="translate(0.5)"/>
</clipPath>
</defs>
</svg>
