<svg width="258" height="258" viewBox="0 0 258 258" fill="none" xmlns="http://www.w3.org/2000/svg">
<g clip-path="url(#clip0_3194_4523)">
<mask id="mask0_3194_4523" style="mask-type:luminance" maskUnits="userSpaceOnUse" x="0" y="0" width="258" height="258">
<path d="M0.5 257.5V0.5H257.5V257.5H0.5Z" fill="white" stroke="white"/>
</mask>
<g mask="url(#mask0_3194_4523)">
<path d="M88.8691 129.717C88.8691 152.277 107.159 170.567 129.721 170.567C152.28 170.567 170.569 152.277 170.569 129.717C170.569 107.157 152.28 88.8669 129.721 88.8669C107.159 88.8669 88.8691 107.157 88.8691 129.717Z" fill="#CFCFCF"/>
<path d="M128.799 226.432C182.761 226.432 226.505 182.689 226.505 128.727C226.505 74.7647 182.761 31.0212 128.799 31.0212C74.8372 31.0212 31.0938 74.7647 31.0938 128.727C31.0938 160.837 46.5833 189.33 70.4989 207.14" stroke="#111111" stroke-opacity="0.4" stroke-linecap="round" stroke-linejoin="round"/>
<path d="M87.7097 225.622C87.7097 225.622 53.6078 229.937 39.7714 216.101C29.1647 205.492 29.1647 188.292 39.7714 177.684C50.38 167.077 67.58 167.077 78.1886 177.684C92.025 191.52 87.7097 225.622 87.7097 225.622Z" stroke="#111111" stroke-opacity="0.4" stroke-linecap="round" stroke-linejoin="round"/>
<path d="M67.2236 189.02C62.9428 188.373 58.423 189.684 55.1263 192.978C51.8316 196.275 50.5205 200.795 51.1684 205.076" stroke="#111111" stroke-opacity="0.4" stroke-linecap="round" stroke-linejoin="round"/>
<mask id="mask1_3194_4523" style="mask-type:alpha" maskUnits="userSpaceOnUse" x="72" y="72" width="115" height="115">
<path d="M129.889 186.338C98.6699 186.338 73.3613 161.029 73.3613 129.812C73.3613 98.5952 98.6699 73.2866 129.889 73.2866C161.106 73.2866 186.413 98.5952 186.413 129.812C186.413 161.029 161.106 186.338 129.889 186.338Z" fill="#FF0000" stroke="url(#paint0_linear_3194_4523)"/>
</mask>
<g mask="url(#mask1_3194_4523)">
<path d="M167.34 69.1746C154.268 74.5181 140.961 81.098 138.975 89.4438C136.992 97.7897 141.515 102.709 144.479 103.836C147.444 104.966 153.792 104.824 156.051 106.237C158.308 107.647 162.966 113.151 169.316 113.715C175.667 114.281 185.121 112.305 192.599 107.93C200.079 103.555 201.35 94.2407 198.669 86.1969C195.988 78.153 183.004 62.7724 167.34 69.1746Z" stroke="#111111" stroke-opacity="0.4" stroke-linecap="round" stroke-linejoin="round"/>
<path d="M131.92 202.761C134.09 192.64 134.307 183.285 133.254 177.64C132.203 171.996 122.168 146.596 133.818 137.281C145.468 127.968 166.353 129 181.174 161.554C190.905 182.926 184.384 200.399 179.616 206.429C165.787 223.919 125.147 234.371 131.92 202.761Z" stroke="#111111" stroke-opacity="0.4" stroke-linecap="round" stroke-linejoin="round"/>
<path d="M61.9259 149.141C70.3807 152.83 75.1508 151.435 83.3762 151.675C94.7798 152.01 106.52 145.424 109.341 135.567C112.163 125.711 109.906 116.161 112.729 111.2C115.55 106.237 124.582 96.3946 124.018 90.732C123.452 85.0694 115.735 71.2005 107.084 66.4418C95.7946 60.2326 66.3864 75.1794 67.2235 102.568C68.0701 130.225 39.9118 139.54 61.9259 149.141Z" stroke="#111111" stroke-opacity="0.4" stroke-linecap="round" stroke-linejoin="round"/>
</g>
<path d="M72.8613 129.812C72.8613 161.305 98.3938 186.838 129.889 186.838C161.382 186.838 186.913 161.305 186.913 129.812C186.913 98.3191 161.382 72.7866 129.889 72.7866C98.3938 72.7866 72.8613 98.3191 72.8613 129.812Z" stroke="url(#paint1_linear_3194_4523)" stroke-width="2.5" stroke-linecap="round" stroke-linejoin="round"/>
</g>
</g>
<defs>
<linearGradient id="paint0_linear_3194_4523" x1="74.1919" y1="108.143" x2="134.029" y2="139.844" gradientUnits="userSpaceOnUse">
<stop stop-color="#1E8AF2"/>
<stop offset="1" stop-color="#05BED7"/>
</linearGradient>
<linearGradient id="paint1_linear_3194_4523" x1="74.1919" y1="108.143" x2="134.029" y2="139.844" gradientUnits="userSpaceOnUse">
<stop stop-color="#1E8AF2"/>
<stop offset="1" stop-color="#05BED7"/>
</linearGradient>
<clipPath id="clip0_3194_4523">
<rect width="258" height="258" fill="white"/>
</clipPath>
</defs>
</svg>
