<svg width="258" height="258" viewBox="0 0 258 258" fill="none" xmlns="http://www.w3.org/2000/svg">
<g clip-path="url(#clip0_3194_4552)">
<mask id="mask0_3194_4552" style="mask-type:luminance" maskUnits="userSpaceOnUse" x="0" y="0" width="258" height="258">
<path d="M258 0H0V258H258V0Z" fill="white"/>
</mask>
<g mask="url(#mask0_3194_4552)">
<path d="M128.724 209.245C173.27 209.245 209.34 173.174 209.34 128.628C209.34 84.0823 173.27 48.012 128.724 48.012C84.1778 48.1105 48.1074 84.1809 48.1074 128.727C48.1074 173.174 84.1778 209.245 128.724 209.245Z" fill="#CFCFCF"/>
<path d="M128.724 228.364C183.815 228.364 228.459 183.719 228.459 128.628C228.361 73.6357 183.716 28.9912 128.724 28.9912C73.6328 28.9912 28.9883 73.6357 28.9883 128.727C28.9883 183.719 73.6328 228.364 128.724 228.364Z" stroke="url(#paint0_linear_3194_4552)" stroke-width="2.13913"/>
<path d="M143.023 128.727C143.023 183.128 138.381 227.181 128.723 227.181C119.065 227.181 113.975 183.128 113.975 128.727C113.975 74.3256 119.065 30.2725 128.723 30.2725C138.283 30.2725 143.023 74.3256 143.023 128.727Z" stroke="#111111" stroke-opacity="0.2" stroke-width="1.06957"/>
<path d="M128.949 143.475C183.35 143.475 227.178 138.385 227.178 128.727C227.178 119.069 183.574 113.304 129.173 113.304C74.7716 113.304 30.2695 119.069 30.2695 128.727C30.2695 138.286 74.5476 143.475 128.949 143.475Z" stroke="#111111" stroke-opacity="0.2" stroke-width="1.06957"/>
<path d="M58.9033 60.0535L199.142 59.5933L198.912 198.451L58.2129 199.601L58.9033 60.0535Z" stroke="#111111" stroke-opacity="0.2"/>
<path d="M58.627 59.2251L199.833 198.727" stroke="#111111" stroke-opacity="0.2"/>
<path d="M200.247 58.7649L58.1211 199.878" stroke="#111111" stroke-opacity="0.2"/>
<path d="M199.51 67.8864C204.21 67.8864 207.987 64.1086 207.987 59.4093C207.987 54.71 204.21 50.9321 199.51 50.9321C194.811 50.9321 191.033 54.71 191.033 59.4093C191.033 64.1086 194.811 67.8864 199.51 67.8864Z" fill="url(#paint1_linear_3194_4552)"/>
<path d="M199.51 61.6206C200.708 61.6206 201.722 60.607 201.722 59.4092C201.722 58.2113 200.708 57.1978 199.51 57.1978C198.312 57.1978 197.299 58.2113 197.299 59.4092C197.299 60.607 198.22 61.6206 199.51 61.6206Z" fill="#1E1E1E"/>
<path d="M58.9498 68.6227C63.6491 68.6227 67.4269 64.8449 67.4269 60.1456C67.4269 55.4463 63.6491 51.6685 58.9498 51.6685C54.2505 51.6685 50.4727 55.4463 50.4727 60.1456C50.4727 64.8449 54.2505 68.6227 58.9498 68.6227Z" fill="url(#paint2_linear_3194_4552)"/>
<path d="M58.9497 62.4492C60.1476 62.4492 61.1611 61.4357 61.1611 60.2378C61.1611 59.0399 60.1476 58.0264 58.9497 58.0264C57.7519 58.0264 56.7383 59.0399 56.7383 60.2378C56.7383 61.4357 57.7519 62.4492 58.9497 62.4492Z" fill="#1E1E1E"/>
<path d="M199.971 207.158C204.671 207.158 208.448 203.381 208.448 198.681C208.448 193.982 204.671 190.204 199.971 190.204C195.272 190.204 191.494 193.982 191.494 198.681C191.494 203.381 195.272 207.158 199.971 207.158Z" fill="url(#paint3_linear_3194_4552)"/>
<path d="M199.971 200.893C201.169 200.893 202.183 199.879 202.183 198.681C202.183 197.483 201.169 196.47 199.971 196.47C198.773 196.47 197.76 197.483 197.76 198.681C197.76 199.879 198.681 200.893 199.971 200.893Z" fill="#1E1E1E"/>
<path d="M58.4889 207.895C63.1881 207.895 66.966 204.117 66.966 199.418C66.966 194.718 63.1881 190.94 58.4889 190.94C53.7896 190.94 50.0117 194.718 50.0117 199.418C50.0117 204.117 53.7896 207.895 58.4889 207.895Z" fill="url(#paint4_linear_3194_4552)"/>
<path d="M58.4888 201.721C59.6866 201.721 60.7002 200.708 60.7002 199.51C60.7002 198.312 59.6866 197.298 58.4888 197.298C57.2909 197.298 56.2773 198.312 56.2773 199.51C56.2773 200.708 57.2909 201.721 58.4888 201.721Z" fill="#1E1E1E"/>
</g>
</g>
<defs>
<linearGradient id="paint0_linear_3194_4552" x1="31.3154" y1="90.7967" x2="135.945" y2="146.257" gradientUnits="userSpaceOnUse">
<stop stop-color="#1E8AF2"/>
<stop offset="1" stop-color="#05BED7"/>
</linearGradient>
<linearGradient id="paint1_linear_3194_4552" x1="191.231" y1="56.188" x2="200.126" y2="60.9006" gradientUnits="userSpaceOnUse">
<stop stop-color="#1E8AF2"/>
<stop offset="1" stop-color="#05BED7"/>
</linearGradient>
<linearGradient id="paint2_linear_3194_4552" x1="50.6705" y1="56.9243" x2="59.5655" y2="61.6369" gradientUnits="userSpaceOnUse">
<stop stop-color="#1E8AF2"/>
<stop offset="1" stop-color="#05BED7"/>
</linearGradient>
<linearGradient id="paint3_linear_3194_4552" x1="191.692" y1="195.46" x2="200.587" y2="200.173" gradientUnits="userSpaceOnUse">
<stop stop-color="#1E8AF2"/>
<stop offset="1" stop-color="#05BED7"/>
</linearGradient>
<linearGradient id="paint4_linear_3194_4552" x1="50.2095" y1="196.196" x2="59.1045" y2="200.909" gradientUnits="userSpaceOnUse">
<stop stop-color="#1E8AF2"/>
<stop offset="1" stop-color="#05BED7"/>
</linearGradient>
<clipPath id="clip0_3194_4552">
<rect width="258" height="258" fill="white"/>
</clipPath>
</defs>
</svg>
