<svg width="30" height="40" viewBox="0 0 30 40" fill="none" xmlns="http://www.w3.org/2000/svg">
<path fill-rule="evenodd" clip-rule="evenodd" d="M14.6442 32.2418H14.6946C15.7694 30.7377 17.0843 30.1053 18.8372 30.3539C20.6972 30.7473 21.8007 32.2858 22.8316 34.7181C23.56 36.4328 25.0574 37.207 26.6716 37.3642C23.7081 40.5757 19.7074 40.5757 14.6694 37.3642C9.62516 40.5841 5.62338 40.5841 2.66406 37.3642C4.28142 37.2068 5.77888 36.4203 6.50721 34.7181C7.53815 32.2858 8.64164 30.7473 10.4985 30.3539C12.2545 30.1085 13.5691 30.7409 14.6442 32.2418Z" fill="white"/>
<path fill-rule="evenodd" clip-rule="evenodd" d="M5.63175 0.195089C6.46434 0.194571 7.28608 0.383535 8.0345 0.747612C8.78292 1.11169 9.4383 1.64129 9.95082 2.29615C10.2481 1.86809 10.6084 1.48725 11.0195 1.16651V8.41364C10.9105 8.55216 10.8363 8.71468 10.8031 8.88765C10.7698 9.06062 10.7785 9.23902 10.8284 9.40796C10.8783 9.5769 10.968 9.73147 11.0899 9.85879C11.2118 9.9861 11.3625 10.0825 11.5294 10.1398C11.6962 10.1972 11.8744 10.2139 12.049 10.1885C12.2237 10.1632 12.3897 10.0965 12.5333 9.99411C12.6768 9.89168 12.7938 9.75647 12.8743 9.59976C12.9548 9.44306 12.9967 9.26939 12.9963 9.09327C12.9956 8.84727 12.9136 8.60837 12.763 8.41364V0.2328C13.097 0.125396 13.4399 0.0474963 13.7876 0V11.2964C13.2727 11.499 12.8447 11.8745 12.5776 12.3583C12.3104 12.842 12.2207 13.4037 12.324 13.9463C12.4273 14.489 12.7171 14.9787 13.1434 15.3309C13.5697 15.6832 14.1059 15.8759 14.6593 15.8759C15.2128 15.8759 15.7489 15.6832 16.1752 15.3309C16.6015 14.9787 16.8913 14.489 16.9946 13.9463C17.0979 13.4037 17.0083 12.842 16.7411 12.3583C16.4739 11.8745 16.046 11.499 15.5311 11.2964V0.0125702C15.9618 0.0705729 16.3847 0.176081 16.7921 0.32716V5.87128V7.61133H20.3546C20.4934 7.72011 20.6562 7.79418 20.8295 7.82736C21.0029 7.86055 21.1816 7.85188 21.3509 7.80208C21.5201 7.75228 21.675 7.6628 21.8026 7.5411C21.9302 7.4194 22.0267 7.26902 22.0842 7.1025C22.1417 6.93598 22.1584 6.75815 22.133 6.58386C22.1076 6.40957 22.0408 6.24387 21.9382 6.10059C21.8356 5.95731 21.7001 5.84061 21.5431 5.76022C21.386 5.67983 21.212 5.63809 21.0356 5.63848C20.7887 5.63701 20.5487 5.71907 20.3546 5.87128H18.5355V1.3844C18.8875 1.69625 19.1932 2.05645 19.4436 2.4542C19.9874 1.70642 20.712 1.10825 21.55 0.715473C22.388 0.322698 23.312 0.148108 24.2359 0.207985C25.1597 0.267862 26.0534 0.560255 26.8334 1.0579C27.6135 1.55554 28.2545 2.24223 28.6969 3.05393C29.1392 3.86562 29.3684 4.77589 29.363 5.69986C29.3577 6.62382 29.118 7.53139 28.6662 8.33792C28.2145 9.14446 27.5655 9.82369 26.7798 10.3123C25.994 10.8009 25.097 11.083 24.1726 11.1322V21.635H5.33216V11.1322C4.61252 11.1125 3.90381 10.9516 3.24649 10.6586C2.58916 10.3656 1.9961 9.94631 1.50115 9.42457C1.00621 8.90283 0.619072 8.28891 0.361855 7.61785C0.104639 6.9468 -0.0176244 6.23175 0.00204712 5.51353C0.0217186 4.79532 0.182939 4.088 0.476504 3.43197C0.77007 2.77594 1.19023 2.18404 1.713 1.69007C2.23576 1.1961 2.8509 0.809727 3.52328 0.553016C4.19566 0.296306 4.91212 0.174283 5.63175 0.193916V0.195089ZM14.645 12.1076C14.9274 12.1076 15.2033 12.1912 15.4381 12.3477C15.6728 12.5042 15.8558 12.7267 15.9638 12.987C16.0719 13.2474 16.1001 13.5338 16.045 13.8101C15.99 14.0865 15.854 14.3403 15.6544 14.5396C15.4548 14.7388 15.2004 14.8745 14.9235 14.9295C14.6466 14.9844 14.3596 14.9562 14.0988 14.8484C13.838 14.7406 13.615 14.558 13.4582 14.3237C13.3013 14.0894 13.2176 13.814 13.2176 13.5322C13.2176 13.1544 13.368 12.792 13.6357 12.5249C13.9034 12.2577 14.2665 12.1076 14.645 12.1076Z" fill="white"/>
<path d="M2.6875 27.0532V26.0023L6.14289 23.4316V24.5613L3.40289 26.534L6.14255 28.532V29.6616L2.6875 27.0532Z" fill="white"/>
<path d="M26.6068 27.0532V26.0023L23.1484 23.4316V24.5613L25.8913 26.534L23.1484 28.5321V29.6618L26.6068 27.0532Z" fill="white"/>
<path d="M11.8007 27.1765L12.4313 27.2583C12.3488 27.5929 12.1542 27.8893 11.8796 28.0983C11.5839 28.3142 11.2243 28.4249 10.8581 28.4129C10.6293 28.4241 10.4007 28.387 10.1872 28.3041C9.97371 28.2211 9.78013 28.0942 9.6191 27.9316C9.29591 27.5585 9.13184 27.074 9.16199 26.5817C9.13047 26.0756 9.29659 25.577 9.62549 25.1906C9.77799 25.0262 9.96429 24.8967 10.1716 24.8109C10.379 24.7251 10.6024 24.6851 10.8267 24.6935C11.0446 24.686 11.2615 24.7254 11.4628 24.809C11.6641 24.8926 11.8449 25.0185 11.9932 25.178C12.3156 25.5588 12.478 26.0492 12.4466 26.5467V26.7072H9.78301C9.77656 27.0342 9.88848 27.3526 10.0982 27.6039C10.193 27.7058 10.3082 27.7864 10.4364 27.8407C10.5647 27.8949 10.7029 27.9214 10.8422 27.9185C11.0453 27.9253 11.245 27.8644 11.4096 27.7454C11.5863 27.5988 11.7166 27.4042 11.7848 27.1852L11.8007 27.1765ZM9.8176 26.2098H11.8069C11.7997 25.9664 11.7196 25.7308 11.5769 25.5333C11.4881 25.4211 11.3744 25.3311 11.2447 25.2705C11.115 25.2099 10.9729 25.1803 10.8297 25.1841C10.7001 25.1803 10.571 25.2033 10.4506 25.2515C10.3302 25.2996 10.221 25.372 10.1298 25.4641C9.93362 25.6636 9.82107 25.9303 9.81508 26.2098H9.8176Z" fill="white"/>
<path d="M19.5026 27.176L20.1332 27.2578C20.048 27.5928 19.8516 27.8892 19.576 28.0986C19.2807 28.3129 18.9226 28.4235 18.5576 28.4132C18.3288 28.4244 18.1002 28.3873 17.8867 28.3043C17.6732 28.2214 17.4797 28.0945 17.3186 27.9319C16.9954 27.5588 16.8314 27.0743 16.8615 26.582C16.8287 26.0763 16.9937 25.5776 17.3218 25.1909C17.4754 25.0271 17.6624 24.8981 17.8701 24.8123C18.0778 24.7266 18.3014 24.6862 18.5261 24.6938C18.7439 24.6863 18.9609 24.7257 19.1622 24.8093C19.3634 24.8929 19.5443 25.0188 19.6925 25.1783C20.0086 25.5592 20.1663 26.0465 20.1332 26.5399C20.1332 26.5746 20.1332 26.628 20.1332 26.7003H17.4755C17.4746 27.0297 17.5933 27.3482 17.8097 27.597C17.9044 27.6988 18.0197 27.7795 18.1479 27.8338C18.2761 27.888 18.4144 27.9145 18.5536 27.9116C18.7567 27.9175 18.956 27.8567 19.1211 27.7384C19.3016 27.5931 19.4345 27.3972 19.5026 27.176ZM17.5104 26.2099H19.5026C19.4977 25.9666 19.4184 25.7306 19.2756 25.5335C19.1867 25.4214 19.0729 25.3316 18.9432 25.2709C18.8136 25.2103 18.6716 25.1806 18.5284 25.1842C18.3987 25.1805 18.2697 25.2034 18.1493 25.2516C18.0289 25.2998 17.9197 25.3722 17.8285 25.4642C17.6334 25.6646 17.5209 25.9307 17.5133 26.2099H17.5104Z" fill="white"/>
</svg>
