<svg width="142" height="40" viewBox="0 0 142 40" fill="none" xmlns="http://www.w3.org/2000/svg">
<g id="Shopify_logo_2018 1" clip-path="url(#clip0_924_45663)">
<path id="Vector" d="M30.9104 7.576C30.8831 7.37731 30.7095 7.26708 30.5654 7.25508C30.4225 7.24308 27.6216 7.20052 27.6216 7.20052C27.6216 7.20052 25.2791 4.92574 25.0477 4.69433C24.8163 4.46292 24.3644 4.53278 24.1887 4.58517C24.1865 4.58627 23.7488 4.72162 23.012 4.94975C22.8887 4.55025 22.7074 4.05905 22.4487 3.56567C21.6148 1.9742 20.3934 1.13262 18.9176 1.13045C18.9154 1.13045 18.9143 1.13045 18.9121 1.13045C18.8095 1.13045 18.708 1.14027 18.6054 1.149C18.5618 1.0966 18.5181 1.0453 18.4723 0.995089C17.8293 0.30742 17.0052 -0.027684 16.0174 0.00178762C14.1115 0.0563648 12.2134 1.4328 10.6743 3.87786C9.59148 5.59812 8.76735 7.75941 8.53377 9.43272C6.34521 10.1106 4.81487 10.5843 4.78103 10.5952C3.67639 10.9423 3.64146 10.9761 3.49738 12.0175C3.39041 12.8045 0.5 35.155 0.5 35.155L24.7224 39.3443L35.2209 36.7344C35.2209 36.7344 30.9376 7.77469 30.9104 7.576ZM21.7993 5.32524C21.2415 5.4977 20.6073 5.69418 19.9196 5.90704C19.9054 4.94211 19.7908 3.59951 19.3411 2.4392C20.7874 2.71318 21.4991 4.3494 21.7993 5.32524ZM18.6523 6.29999C17.3829 6.69292 15.9977 7.1219 14.6082 7.552C14.999 6.05548 15.7401 4.56553 16.6505 3.5886C16.9889 3.22511 17.4626 2.82015 18.0236 2.58874C18.5508 3.68902 18.6654 5.24665 18.6523 6.29999ZM16.0555 1.27016C16.5031 1.26033 16.8797 1.35858 17.2017 1.57033C16.6865 1.83776 16.1887 2.22199 15.7216 2.723C14.511 4.02194 13.5832 6.03802 13.2132 7.98315C12.0594 8.34007 10.9308 8.69049 9.89161 9.01141C10.5477 5.94961 13.1138 1.3553 16.0555 1.27016Z" fill="#95BF47"/>
<path id="Vector_2" d="M30.5666 7.25619C30.4237 7.24419 27.6228 7.20164 27.6228 7.20164C27.6228 7.20164 25.2804 4.92684 25.0489 4.69544C24.9627 4.6092 24.8459 4.56445 24.7236 4.5459L24.7247 39.3432L35.2221 36.7344C35.2221 36.7344 30.9389 7.7758 30.9116 7.57711C30.8843 7.37842 30.7097 7.26819 30.5666 7.25619Z" fill="#5E8E3E"/>
<path id="Vector_3" d="M18.9044 12.6539L17.6852 17.2154C17.6852 17.2154 16.3251 16.5966 14.7129 16.6981C12.3486 16.8476 12.3235 18.3387 12.3476 18.7131C12.4763 20.7531 17.8434 21.1985 18.1447 25.9773C18.3816 29.7366 16.1504 32.3082 12.9359 32.5112C9.07726 32.7547 6.95312 30.4788 6.95312 30.4788L7.77071 27.0011C7.77071 27.0011 9.909 28.6145 11.6205 28.5064C12.7383 28.4354 13.1378 27.5262 13.0974 26.8832C12.9293 24.2221 8.55877 24.3792 8.28264 20.0065C8.05011 16.327 10.4668 12.5983 15.799 12.2621C17.8533 12.13 18.9044 12.6539 18.9044 12.6539Z" fill="white"/>
<path id="Vector_4" d="M49.0458 22.2058C47.8386 21.5507 47.2182 20.9986 47.2182 20.2397C47.2182 19.274 48.08 18.6536 49.4258 18.6536C50.9923 18.6536 52.3911 19.3086 52.3911 19.3086L53.4943 15.9286C53.4943 15.9286 52.4799 15.135 49.494 15.135C45.3388 15.135 42.459 17.5146 42.459 20.86C42.459 22.7568 43.8036 24.2054 45.5975 25.2393C47.0461 26.0664 47.5636 26.6532 47.5636 27.515C47.5636 28.4115 46.8394 29.1357 45.4947 29.1357C43.4907 29.1357 41.5982 28.1007 41.5982 28.1007L40.4258 31.4807C40.4258 31.4807 42.1742 32.6532 45.1158 32.6532C49.3922 32.6532 52.4615 30.5496 52.4615 26.7561C52.4604 24.7229 50.909 23.2743 49.0458 22.2058Z" fill="#111111"/>
<path id="Vector_5" d="M66.0825 15.1014C63.9788 15.1014 62.3235 16.1018 61.0481 17.6186L60.9788 17.5839L62.8063 8.03174H58.047L53.4263 32.3435H58.1856L59.7716 24.0332C60.392 20.8946 62.0127 18.9643 63.5306 18.9643C64.5991 18.9643 65.0138 19.6885 65.0138 20.7235C65.0138 21.3786 64.9445 22.1721 64.807 22.8271L63.0141 32.3447H67.7737L69.6353 22.5164C69.8425 21.4814 69.9809 20.2407 69.9809 19.4125C69.9789 16.7221 68.5652 15.1014 66.0825 15.1014Z" fill="#111111"/>
<path id="Vector_6" d="M80.7381 15.1013C75.0128 15.1013 71.2207 20.2742 71.2207 26.0328C71.2207 29.7224 73.4961 32.6878 77.7728 32.6878C83.3938 32.6878 87.1873 27.6535 87.1873 21.7563C87.1873 18.3428 85.1866 15.1013 80.7381 15.1013ZM78.3932 29.0338C76.7722 29.0338 76.0823 27.6546 76.0823 25.9299C76.0823 23.206 77.4968 18.7574 80.083 18.7574C81.7728 18.7574 82.3237 20.206 82.3237 21.6199C82.3237 24.5506 80.9112 29.0338 78.3932 29.0338Z" fill="#111111"/>
<path id="Vector_7" d="M99.3601 15.1013C96.1477 15.1013 94.3247 17.9292 94.3247 17.9292H94.2565L94.5326 15.3774H90.3254C90.1188 17.102 89.7385 19.722 89.3601 21.6881L86.0493 39.1024H90.8087L92.1182 32.0674H92.2224C92.2224 32.0674 93.1988 32.6878 95.0159 32.6878C100.602 32.6878 104.257 26.9639 104.257 21.1696C104.257 17.9639 102.843 15.1013 99.3601 15.1013ZM94.808 29.102C93.5726 29.102 92.8414 28.4124 92.8414 28.4124L93.6349 23.9639C94.187 20.9985 95.7385 19.0324 97.3942 19.0324C98.8428 19.0324 99.2906 20.3771 99.2906 21.6535C99.2906 24.7228 97.4631 29.102 94.808 29.102Z" fill="#111111"/>
<path id="Vector_8" d="M111.051 8.27319C109.534 8.27319 108.327 9.48034 108.327 11.0318C108.327 12.4457 109.223 13.4114 110.568 13.4114H110.637C112.12 13.4114 113.396 12.411 113.43 10.6529C113.43 9.27352 112.499 8.27319 111.051 8.27319Z" fill="white"/>
<path id="Vector_9" d="M104.396 32.3436H109.154L112.396 15.4814H107.602L104.396 32.3436Z" fill="#111111"/>
<path id="Vector_10" d="M124.501 15.4468H121.19L121.362 14.6532C121.638 13.0325 122.604 11.5839 124.19 11.5839C125.037 11.5839 125.707 11.8253 125.707 11.8253L126.638 8.10107C126.638 8.10107 125.81 7.6875 124.051 7.6875C122.361 7.6875 120.673 8.17032 119.396 9.27353C117.775 10.6529 117.016 12.6525 116.637 14.6532L116.5 15.4468H114.292L113.602 19.0336H115.81L113.293 32.3447H118.052L120.57 19.0336H123.846L124.501 15.4468Z" fill="#111111"/>
<path id="Vector_11" d="M135.949 15.4813C135.949 15.4813 132.974 22.9764 131.639 27.0678H131.569C131.479 25.7502 130.397 15.4813 130.397 15.4813H125.396L128.26 30.9642C128.329 31.3085 128.294 31.5164 128.156 31.7577C127.603 32.8263 126.673 33.8613 125.569 34.6203C124.673 35.2752 123.673 35.6888 122.88 35.9649L124.19 39.9999C125.156 39.7931 127.155 38.9996 128.845 37.4135C131.018 35.3792 133.018 32.2406 135.086 27.9642L140.915 15.4802H135.949V15.4813Z" fill="#111111"/>
</g>
<defs>
<clipPath id="clip0_924_45663">
<rect width="140.984" height="40" fill="white" transform="translate(0.5)"/>
</clipPath>
</defs>
</svg>
