<svg width="64" height="64" viewBox="0 0 64 64" fill="none" xmlns="http://www.w3.org/2000/svg">
<rect width="64" height="64" rx="32" fill="#00D958"/>
<g clip-path="url(#clip0_10_36518)">
<path d="M45.3334 30.7734V32C45.3318 34.8753 44.4007 37.6729 42.6792 39.9758C40.9576 42.2787 38.5378 43.9633 35.7806 44.7786C33.0233 45.5938 30.0764 45.4959 27.3794 44.4995C24.6823 43.503 22.3796 41.6615 20.8147 39.2494C19.2498 36.8374 18.5065 33.9841 18.6957 31.1151C18.8848 28.2461 19.9964 25.5151 21.8645 23.3295C23.7326 21.1438 26.2571 19.6205 29.0617 18.9869C31.8662 18.3532 34.8004 18.6431 37.4268 19.8134M45.3334 21.3334L32.0001 34.68L28.0001 30.68" stroke="white" stroke-width="4" stroke-linecap="round" stroke-linejoin="round"/>
</g>
<defs>
<clipPath id="clip0_10_36518">
<rect width="32" height="32" fill="white" transform="translate(16 16)"/>
</clipPath>
</defs>
</svg>
