<svg width="153" height="40" viewBox="0 0 153 40" fill="none" xmlns="http://www.w3.org/2000/svg">
<g clip-path="url(#clip0_912_21152)">
<path d="M17.0589 0H0.333252V40L17.0589 0Z" fill="#FA0C00"/>
<path d="M28.8269 0H45.5308V40L28.8269 0Z" fill="#FA0C00"/>
<path d="M22.943 14.7427L33.5886 40.0001H26.6041L23.4224 31.9587H15.6316L22.943 14.7427Z" fill="#FA0C00"/>
<path d="M72.8173 25.4375L74.7895 31.0927C74.8549 31.2343 74.953 31.2997 75.1273 31.2997H78.9192C79.1262 31.2997 79.1589 31.2016 79.1262 30.9946L71.2919 9.23486C71.2592 9.06052 71.2265 9.02783 71.0521 9.02783H66.345C66.2142 9.02783 66.1379 9.1259 66.1379 9.26755C66.0726 10.4117 65.9745 10.7603 65.8329 11.0981L58.8484 30.9619C58.8157 31.2016 58.892 31.2997 59.0881 31.2997H62.4768C62.6839 31.2997 62.7819 31.2343 62.8582 31.0273L64.7214 25.4375H72.8173ZM65.8002 21.7437C66.8244 18.6492 68.1756 14.683 68.7204 12.4166H68.7531C69.4286 14.7919 71.0195 19.4991 71.7386 21.7437H65.8002Z" fill="#FA0C00"/>
<path d="M89.1978 31.6374C91.2354 31.6374 93.4037 31.267 95.6048 30.319C95.7791 30.2536 95.8118 30.1774 95.8118 30.0139C95.7464 29.4037 95.6702 28.5211 95.6702 27.8456V7.36068C95.6702 7.22993 95.6702 7.16455 95.5067 7.16455H91.8129C91.6713 7.16455 91.6059 7.22993 91.6059 7.40427V14.3452C91.0284 14.2798 90.6252 14.2471 90.1458 14.2471C84.1855 14.2471 80.5244 18.1806 80.5244 23.0948C80.5244 28.7935 84.2836 31.6374 89.1978 31.6374ZM91.6059 27.8456C90.9957 28.0417 90.3201 28.118 89.6336 28.118C86.9314 28.118 84.7195 26.5925 84.7195 22.8878C84.7195 19.608 86.9968 17.6685 90.015 17.6685C90.6252 17.6685 91.1591 17.7339 91.6059 17.9082V27.8456Z" fill="#FA0C00"/>
<path d="M107.596 14.2471C102.507 14.2471 99.3584 18.1479 99.3584 22.964C99.3584 27.268 101.865 31.6374 107.52 31.6374C112.303 31.6374 115.659 28.118 115.659 22.8551C115.659 18.2133 112.815 14.2471 107.596 14.2471ZM107.389 17.6685C110.266 17.6685 111.486 20.1419 111.486 22.964C111.486 26.4508 109.688 28.1833 107.596 28.1833C105.014 28.1833 103.488 26.015 103.488 22.8878C103.488 19.6734 105.112 17.6685 107.389 17.6685Z" fill="#FA0C00"/>
<path d="M119.478 7.16455C119.336 7.16455 119.238 7.22993 119.238 7.40427V30.5914C119.238 30.6895 119.336 30.8638 119.478 30.8965C121.102 31.3977 122.801 31.6374 124.556 31.6374C129.579 31.6374 134.46 28.5211 134.46 22.2449C134.46 17.7012 131.344 14.2471 126.462 14.2471C125.34 14.2471 124.294 14.4214 123.379 14.7265L123.335 7.43696C123.335 7.19724 123.27 7.16455 123.03 7.16455H119.478ZM130.287 22.659C130.287 26.4182 127.716 28.1833 124.937 28.1833C124.36 28.1833 123.847 28.1507 123.379 28.009V18.1152C123.913 17.9082 124.556 17.7339 125.743 17.7339C128.424 17.7339 130.287 19.4337 130.287 22.659Z" fill="#FA0C00"/>
<path d="M148.246 23.8793C149.902 23.8793 151.264 23.8466 151.732 23.7377C151.907 23.705 151.972 23.6396 152.005 23.498C152.103 23.1275 152.146 22.3539 152.146 21.4059C152.146 18.1806 150.207 14.2471 145.195 14.2471C140.073 14.2471 137.229 18.4203 137.229 23.1275C137.229 27.3007 139.431 31.6374 145.598 31.6374C147.908 31.6374 149.401 31.267 150.686 30.6568C150.817 30.5914 150.882 30.4824 150.882 30.2863V27.4642C150.882 27.3007 150.784 27.268 150.686 27.3334C149.401 27.8782 148.006 28.1506 146.48 28.1506C143.026 28.1506 141.457 26.2438 141.359 23.8793H148.246ZM141.359 20.9591C141.632 19.3029 142.678 17.505 145.02 17.505C147.603 17.505 148.278 19.6734 148.278 20.654C148.278 20.6867 148.278 20.8284 148.278 20.9265C148.137 20.9591 147.701 20.9591 146.415 20.9591H141.359Z" fill="#FA0C00"/>
</g>
<defs>
<clipPath id="clip0_912_21152">
<rect width="151.813" height="40" fill="white" transform="translate(0.333252)"/>
</clipPath>
</defs>
</svg>
