<svg width="67" height="40" viewBox="0 0 67 40" fill="none" xmlns="http://www.w3.org/2000/svg">
<path d="M18.9892 14.5933C18.9892 15.4065 19.0772 16.0659 19.231 16.5494C19.4068 17.0329 19.6266 17.5604 19.9343 18.1318C20.0442 18.3076 20.0881 18.4835 20.0881 18.6373C20.0881 18.8571 19.9563 19.0769 19.6706 19.2966L18.2859 20.2197C18.0881 20.3516 17.8903 20.4175 17.7145 20.4175C17.4947 20.4175 17.275 20.3076 17.0552 20.1098C16.7475 19.7802 16.4837 19.4285 16.264 19.0769C16.0442 18.7032 15.8244 18.2857 15.5826 17.7802C13.8684 19.8021 11.7145 20.8131 9.1211 20.8131C7.27495 20.8131 5.80242 20.2857 4.7255 19.2307C3.64857 18.1758 3.09912 16.7692 3.09912 15.0109C3.09912 13.1428 3.75846 11.6263 5.09912 10.4835C6.43978 9.3406 8.22 8.76917 10.4837 8.76917C11.231 8.76917 12.0002 8.83511 12.8134 8.945C13.6266 9.05489 14.4618 9.23071 15.3409 9.42851V7.82412C15.3409 6.15379 14.9892 4.98895 14.3079 4.30763C13.6046 3.62631 12.4178 3.29664 10.7255 3.29664C9.95627 3.29664 9.16506 3.38456 8.35187 3.58236C7.53868 3.78016 6.74747 4.02192 5.97824 4.32961C5.62659 4.48346 5.36286 4.57137 5.20901 4.61533C5.05517 4.65928 4.94528 4.68126 4.85736 4.68126C4.54967 4.68126 4.39582 4.46148 4.39582 3.99994V2.92302C4.39582 2.57137 4.43978 2.30763 4.54967 2.15379C4.65956 1.99994 4.85736 1.84609 5.16506 1.69225C5.93429 1.29664 6.85736 0.966974 7.93429 0.703238C9.01121 0.417523 10.1541 0.285655 11.3629 0.285655C13.9782 0.285655 15.8903 0.879062 17.1211 2.06588C18.3299 3.25269 18.9453 5.05489 18.9453 7.47247V14.5933H18.9892ZM10.0662 17.934C10.7914 17.934 11.5387 17.8021 12.3299 17.5384C13.1211 17.2747 13.8244 16.7912 14.4178 16.1318C14.7695 15.7142 15.0332 15.2527 15.1651 14.7252C15.2969 14.1977 15.3848 13.5604 15.3848 12.8131V11.8901C14.7475 11.7362 14.0662 11.6043 13.3629 11.5164C12.6596 11.4285 11.9782 11.3846 11.2969 11.3846C9.8244 11.3846 8.74748 11.6703 8.0222 12.2637C7.29693 12.8571 6.94528 13.6923 6.94528 14.7912C6.94528 15.8241 7.20901 16.5933 7.75846 17.1208C8.28594 17.6703 9.05517 17.934 10.0662 17.934ZM27.7145 20.3076C27.3189 20.3076 27.0552 20.2417 26.8794 20.0879C26.7035 19.956 26.5497 19.6483 26.4178 19.2307L21.253 2.2417C21.1211 1.80214 21.0552 1.51642 21.0552 1.36258C21.0552 1.01093 21.231 0.813128 21.5826 0.813128H23.7365C24.1541 0.813128 24.4398 0.879062 24.5936 1.03291C24.7695 1.16478 24.9013 1.47247 25.0332 1.89005L28.7255 16.4395L32.1541 1.89005C32.264 1.45049 32.3958 1.16478 32.5717 1.03291C32.7475 0.90104 33.0552 0.813128 33.4508 0.813128H35.209C35.6266 0.813128 35.9123 0.879062 36.0881 1.03291C36.264 1.16478 36.4178 1.47247 36.5057 1.89005L39.9783 16.6153L43.7805 1.89005C43.9123 1.45049 44.0662 1.16478 44.22 1.03291C44.3958 0.90104 44.6816 0.813128 45.0772 0.813128H47.1211C47.4728 0.813128 47.6706 0.988952 47.6706 1.36258C47.6706 1.47247 47.6486 1.58236 47.6266 1.71423C47.6046 1.84609 47.5607 2.02192 47.4728 2.26368L42.1761 19.2527C42.0442 19.6922 41.8903 19.978 41.7145 20.1098C41.5387 20.2417 41.253 20.3296 40.8794 20.3296H38.9892C38.5717 20.3296 38.2859 20.2637 38.1101 20.1098C37.9343 19.956 37.7805 19.6703 37.6925 19.2307L34.2859 5.05489L30.9013 19.2087C30.7914 19.6483 30.6596 19.934 30.4837 20.0879C30.3079 20.2417 30.0002 20.3076 29.6046 20.3076H27.7145ZM55.9563 20.901C54.8134 20.901 53.6706 20.7692 52.5717 20.5054C51.4728 20.2417 50.6156 19.956 50.0442 19.6263C49.6925 19.4285 49.4508 19.2087 49.3629 19.0109C49.275 18.8131 49.231 18.5933 49.231 18.3955V17.2747C49.231 16.8131 49.4068 16.5933 49.7365 16.5933C49.8684 16.5933 50.0002 16.6153 50.1321 16.6593C50.264 16.7032 50.4618 16.7912 50.6816 16.8791C51.4288 17.2087 52.242 17.4725 53.0991 17.6483C53.9783 17.8241 54.8354 17.912 55.7145 17.912C57.0991 17.912 58.1761 17.6703 58.9233 17.1868C59.6706 16.7032 60.0662 15.9999 60.0662 15.0988C60.0662 14.4835 59.8684 13.978 59.4728 13.5604C59.0772 13.1428 58.3299 12.7692 57.253 12.4175L54.0662 11.4285C52.4618 10.923 51.275 10.1758 50.5497 9.18676C49.8244 8.21972 49.4508 7.1428 49.4508 5.99994C49.4508 5.07686 49.6486 4.26368 50.0442 3.56038C50.4398 2.85708 50.9673 2.2417 51.6266 1.75818C52.286 1.25269 53.0332 0.879062 53.9123 0.615326C54.7915 0.351589 55.7145 0.241699 56.6816 0.241699C57.1651 0.241699 57.6706 0.263677 58.1541 0.329611C58.6596 0.395545 59.1211 0.483457 59.5827 0.57137C60.0222 0.68126 60.4398 0.79115 60.8354 0.923018C61.231 1.05489 61.5387 1.18675 61.7585 1.31862C62.0662 1.49445 62.286 1.67027 62.4178 1.86807C62.5497 2.0439 62.6156 2.28566 62.6156 2.59335V3.62631C62.6156 4.08785 62.4398 4.32961 62.1101 4.32961C61.9343 4.32961 61.6486 4.2417 61.275 4.06588C60.0222 3.49445 58.6156 3.20873 57.0552 3.20873C55.8024 3.20873 54.8134 3.40653 54.1321 3.82412C53.4508 4.2417 53.0991 4.87906 53.0991 5.78016C53.0991 6.39555 53.3189 6.92302 53.7585 7.3406C54.198 7.75818 55.0112 8.17577 56.1761 8.54939L59.2969 9.5384C60.8794 10.0439 62.0222 10.7472 62.7035 11.6483C63.3849 12.5494 63.7145 13.5824 63.7145 14.7252C63.7145 15.6703 63.5167 16.5274 63.1431 17.2747C62.7475 18.0219 62.22 18.6813 61.5387 19.2087C60.8574 19.7582 60.0442 20.1538 59.0991 20.4395C58.1101 20.7472 57.0772 20.901 55.9563 20.901Z" fill="#111111"/>
<path fill-rule="evenodd" clip-rule="evenodd" d="M60.11 31.5825C52.8792 36.9231 42.3737 39.7583 33.3408 39.7583C20.6814 39.7583 9.27484 35.077 0.65945 27.2967C-0.0218686 26.6814 0.593516 25.8462 1.4067 26.3297C10.7254 31.7363 22.2199 35.011 34.11 35.011C42.132 35.011 50.9452 33.3407 59.0551 29.9121C60.2639 29.3627 61.2968 30.7033 60.11 31.5825Z" fill="#FF9900"/>
<path fill-rule="evenodd" clip-rule="evenodd" d="M63.1211 28.1539C62.198 26.9671 57.0112 27.5824 54.6596 27.8682C53.9563 27.9561 53.8464 27.3407 54.4838 26.8791C58.6156 23.978 65.4068 24.8132 66.198 25.7802C66.9893 26.7693 65.9783 33.5605 62.1101 36.8132C61.5167 37.3187 60.9453 37.055 61.209 36.3956C62.0882 34.2198 64.0442 29.3187 63.1211 28.1539Z" fill="#FF9900"/>
</svg>
