<svg width="142" height="40" viewBox="0 0 142 40" fill="none" xmlns="http://www.w3.org/2000/svg">
<g clip-path="url(#clip0_924_24116)">
<path d="M31.0769 7.576C31.0496 7.37731 30.876 7.26708 30.7319 7.25508C30.589 7.24308 27.7881 7.20052 27.7881 7.20052C27.7881 7.20052 25.4456 4.92574 25.2142 4.69433C24.9828 4.46292 24.5309 4.53278 24.3552 4.58517C24.353 4.58627 23.9153 4.72162 23.1785 4.94975C23.0552 4.55025 22.8739 4.05905 22.6152 3.56567C21.7813 1.9742 20.5599 1.13262 19.0841 1.13045C19.0819 1.13045 19.0808 1.13045 19.0786 1.13045C18.976 1.13045 18.8745 1.14027 18.7719 1.149C18.7283 1.0966 18.6846 1.0453 18.6388 0.995089C17.9958 0.30742 17.1718 -0.027684 16.1839 0.00178762C14.278 0.0563648 12.3799 1.4328 10.8408 3.87786C9.75798 5.59812 8.93385 7.75941 8.70028 9.43272C6.51172 10.1106 4.98137 10.5843 4.94753 10.5952C3.84289 10.9423 3.80797 10.9761 3.66388 12.0175C3.55691 12.8045 0.666504 35.155 0.666504 35.155L24.8889 39.3443L35.3874 36.7344C35.3874 36.7344 31.1041 7.77469 31.0769 7.576ZM21.9658 5.32524C21.408 5.4977 20.7738 5.69418 20.0861 5.90704C20.0719 4.94211 19.9573 3.59951 19.5076 2.4392C20.9539 2.71318 21.6656 4.3494 21.9658 5.32524ZM18.8188 6.29999C17.5494 6.69292 16.1642 7.1219 14.7747 7.552C15.1655 6.05548 15.9066 4.56553 16.817 3.5886C17.1554 3.22511 17.6291 2.82015 18.1901 2.58874C18.7173 3.68902 18.8319 5.24665 18.8188 6.29999ZM16.222 1.27016C16.6696 1.26033 17.0462 1.35858 17.3682 1.57033C16.853 1.83776 16.3552 2.22199 15.8881 2.723C14.6775 4.02194 13.7497 6.03802 13.3797 7.98315C12.2259 8.34007 11.0973 8.69049 10.0581 9.01141C10.7142 5.94961 13.2803 1.3553 16.222 1.27016Z" fill="#95BF47"/>
<path d="M30.7332 7.25619C30.5902 7.24419 27.7893 7.20164 27.7893 7.20164C27.7893 7.20164 25.4469 4.92684 25.2154 4.69544C25.1292 4.6092 25.0124 4.56445 24.8901 4.5459L24.8913 39.3432L35.3886 36.7344C35.3886 36.7344 31.1054 7.7758 31.0781 7.57711C31.0508 7.37842 30.8762 7.26819 30.7332 7.25619Z" fill="#5E8E3E"/>
<path d="M19.0709 12.6539L17.8517 17.2154C17.8517 17.2154 16.4916 16.5966 14.8794 16.6981C12.5151 16.8476 12.49 18.3387 12.5141 18.7131C12.6428 20.7531 18.0099 21.1985 18.3112 25.9773C18.5481 29.7366 16.3169 32.3082 13.1024 32.5112C9.24377 32.7547 7.11963 30.4788 7.11963 30.4788L7.93721 27.0011C7.93721 27.0011 10.0755 28.6145 11.787 28.5064C12.9048 28.4354 13.3043 27.5262 13.2639 26.8832C13.0958 24.2221 8.72527 24.3792 8.44914 20.0065C8.21662 16.327 10.6333 12.5983 15.9655 12.2621C18.0198 12.13 19.0709 12.6539 19.0709 12.6539Z" fill="white"/>
<path d="M49.2123 22.2058C48.0051 21.5507 47.3847 20.9986 47.3847 20.2397C47.3847 19.274 48.2465 18.6536 49.5923 18.6536C51.1588 18.6536 52.5576 19.3086 52.5576 19.3086L53.6608 15.9286C53.6608 15.9286 52.6464 15.135 49.6605 15.135C45.5053 15.135 42.6255 17.5146 42.6255 20.86C42.6255 22.7568 43.9701 24.2054 45.764 25.2393C47.2126 26.0664 47.7301 26.6532 47.7301 27.515C47.7301 28.4115 47.0059 29.1357 45.6612 29.1357C43.6572 29.1357 41.7647 28.1007 41.7647 28.1007L40.5923 31.4807C40.5923 31.4807 42.3407 32.6532 45.2823 32.6532C49.5587 32.6532 52.628 30.5496 52.628 26.7561C52.6269 24.7229 51.0755 23.2743 49.2123 22.2058Z" fill="white"/>
<path d="M66.249 15.1014C64.1453 15.1014 62.49 16.1018 61.2146 17.6186L61.1453 17.5839L62.9728 8.03174H58.2135L53.5928 32.3435H58.3521L59.9382 24.0332C60.5585 20.8946 62.1792 18.9643 63.6971 18.9643C64.7656 18.9643 65.1803 19.6885 65.1803 20.7235C65.1803 21.3786 65.111 22.1721 64.9735 22.8271L63.1806 32.3447H67.9402L69.8018 22.5164C70.009 21.4814 70.1474 20.2407 70.1474 19.4125C70.1454 16.7221 68.7317 15.1014 66.249 15.1014Z" fill="white"/>
<path d="M80.9046 15.1013C75.1793 15.1013 71.3872 20.2742 71.3872 26.0328C71.3872 29.7224 73.6626 32.6878 77.9393 32.6878C83.5603 32.6878 87.3538 27.6535 87.3538 21.7563C87.3538 18.3428 85.3531 15.1013 80.9046 15.1013ZM78.5597 29.0338C76.9387 29.0338 76.2488 27.6546 76.2488 25.9299C76.2488 23.206 77.6633 18.7574 80.2495 18.7574C81.9393 18.7574 82.4902 20.206 82.4902 21.6199C82.4902 24.5506 81.0777 29.0338 78.5597 29.0338Z" fill="white"/>
<path d="M99.5266 15.1013C96.3142 15.1013 94.4912 17.9292 94.4912 17.9292H94.423L94.6991 15.3774H90.4919C90.2853 17.102 89.905 19.722 89.5266 21.6881L86.2158 39.1024H90.9752L92.2847 32.0674H92.3889C92.3889 32.0674 93.3653 32.6878 95.1824 32.6878C100.769 32.6878 104.424 26.9639 104.424 21.1696C104.424 17.9639 103.009 15.1013 99.5266 15.1013ZM94.9745 29.102C93.7391 29.102 93.008 28.4124 93.008 28.4124L93.8014 23.9639C94.3535 20.9985 95.905 19.0324 97.5607 19.0324C99.0093 19.0324 99.4571 20.3771 99.4571 21.6535C99.4571 24.7228 97.6296 29.102 94.9745 29.102Z" fill="white"/>
<path d="M111.217 8.27319C109.7 8.27319 108.493 9.48034 108.493 11.0318C108.493 12.4457 109.39 13.4114 110.734 13.4114H110.803C112.287 13.4114 113.562 12.411 113.597 10.6529C113.597 9.27352 112.666 8.27319 111.217 8.27319Z" fill="white"/>
<path d="M104.562 32.3436H109.32L112.563 15.4814H107.769L104.562 32.3436Z" fill="white"/>
<path d="M124.667 15.4468H121.357L121.528 14.6532C121.804 13.0325 122.77 11.5839 124.357 11.5839C125.203 11.5839 125.873 11.8253 125.873 11.8253L126.804 8.10107C126.804 8.10107 125.977 7.6875 124.217 7.6875C122.528 7.6875 120.839 8.17032 119.562 9.27353C117.941 10.6529 117.183 12.6525 116.804 14.6532L116.667 15.4468H114.459L113.769 19.0336H115.977L113.459 32.3447H118.219L120.736 19.0336H124.012L124.667 15.4468Z" fill="white"/>
<path d="M136.116 15.4813C136.116 15.4813 133.141 22.9764 131.805 27.0678H131.736C131.645 25.7502 130.563 15.4813 130.563 15.4813H125.562L128.426 30.9642C128.496 31.3085 128.461 31.5164 128.322 31.7577C127.77 32.8263 126.839 33.8613 125.736 34.6203C124.839 35.2752 123.839 35.6888 123.046 35.9649L124.357 39.9999C125.322 39.7931 127.322 38.9996 129.012 37.4135C131.185 35.3792 133.184 32.2406 135.253 27.9642L141.081 15.4802H136.116V15.4813Z" fill="white"/>
</g>
<defs>
<clipPath id="clip0_924_24116">
<rect width="140.984" height="40" fill="white" transform="translate(0.666504)"/>
</clipPath>
</defs>
</svg>
