<svg width="133" height="40" viewBox="0 0 133 40" fill="none" xmlns="http://www.w3.org/2000/svg">
<path d="M19.2 15.0667C19.2 17.3333 17.3333 19.2 15.0667 19.2C12.8 19.2 10.9333 17.3333 10.9333 15.0667C10.9333 12.8 12.8 10.9333 15.0667 10.9333C17.3333 10.9333 19.2 12.8 19.2 15.0667ZM15.0667 20.8C12.8 20.8 10.9333 22.6667 10.9333 24.9333C10.9333 27.2 12.8 29.0667 15.0667 29.0667C17.3333 29.0667 19.2 27.2 19.2 24.9333C19.2 22.6667 17.3333 20.8 15.0667 20.8ZM40 20C40 31.0667 31.0667 40 20 40C8.93333 40 0 31.0667 0 20C0 8.93333 8.93333 0 20 0C31.0667 0 40 8.93333 40 20ZM34.6667 20C34.6667 11.8667 28.1333 5.33333 20 5.33333C11.8667 5.33333 5.33333 11.8667 5.33333 20C5.33333 28.1333 11.8667 34.6667 20 34.6667C28.1333 34.6667 34.6667 28.1333 34.6667 20ZM24.9333 20.8C22.6667 20.8 20.8 22.6667 20.8 24.9333C20.8 27.2 22.6667 29.0667 24.9333 29.0667C27.2 29.0667 29.0667 27.2 29.0667 24.9333C29.0667 22.6667 27.2 20.8 24.9333 20.8ZM24.9333 10.9333C22.6667 10.9333 20.8 12.8 20.8 15.0667C20.8 17.3333 22.6667 19.2 24.9333 19.2C27.2 19.2 29.0667 17.3333 29.0667 15.0667C29.0667 12.8 27.2 10.9333 24.9333 10.9333ZM93.7333 7.86667C93.8667 7.86667 94 8 94.1333 8.13333V12.4C94.1333 12.6667 93.8667 12.8 93.7333 12.8H86.6667C86.4 12.8 86.2667 12.5333 86.2667 12.4V8.26667C86.2667 8 86.5333 7.86667 86.6667 7.86667H93.7333ZM93.6 13.8667H80C79.8667 13.8667 79.6 14 79.6 14.2667L77.8667 20.9333L77.7333 21.3333L75.6 14.2667C75.6 14.1333 75.3333 13.8667 75.2 13.8667H69.8667C69.7333 13.8667 69.4667 14 69.4667 14.2667L67.4667 20.9333L67.3333 21.3333L67.2 20.9333L66.4 17.6L65.6 14.2667C65.6 14.1333 65.3333 13.8667 65.2 13.8667H54.5333V8.13333C54.5333 8 54.2667 7.73333 54 7.86667L47.3333 10C47.0667 10 46.9333 10.1333 46.9333 10.4V14H45.2C45.0667 14 44.8 14.1333 44.8 14.4V19.4667C44.8 19.6 44.9333 19.8667 45.2 19.8667H46.9333V26.1333C46.9333 30.5333 49.3333 32.5333 53.7333 32.5333C55.6 32.5333 57.3333 32.1333 58.5333 31.4667V26.1333C58.5333 25.8667 58.2667 25.7333 58.1333 25.8667C57.4667 26.1333 56.8 26.2667 56.2667 26.2667C55.0667 26.2667 54.4 25.7333 54.4 24.4V19.8667H58.2667C58.4 19.8667 58.6667 19.7333 58.6667 19.4667V15.2L63.7333 32C63.7333 32.1333 64 32.4 64.1333 32.4H69.7333C69.8667 32.4 70.1333 32.2667 70.1333 32L72.5333 24.5333L73.7333 28.4L74.8 32C74.8 32.1333 75.0667 32.4 75.2 32.4H80.8C80.9333 32.4 81.2 32.2667 81.2 32L86.2667 15.2V32C86.2667 32.1333 86.4 32.4 86.6667 32.4H93.4667C93.6 32.4 93.8667 32.2667 93.8667 32V14.2667C93.8667 14.1333 93.7333 13.8667 93.6 13.8667ZM102.533 7.86667H95.7333C95.6 7.86667 95.3333 8 95.3333 8.26667V31.8667C95.3333 32 95.4667 32.2667 95.7333 32.2667H102.533C102.667 32.2667 102.933 32.1333 102.933 31.8667V8.13333C102.933 8 102.8 7.86667 102.533 7.86667ZM111.6 7.86667H104.533C104.4 7.86667 104.133 8 104.133 8.26667V12.4C104.133 12.5333 104.267 12.8 104.533 12.8H111.6C111.733 12.8 112 12.6667 112 12.4V8.13333C112 8 111.867 7.86667 111.6 7.86667ZM111.467 13.8667H104.667C104.533 13.8667 104.267 14 104.267 14.2667V31.7333C104.267 31.8667 104.4 32.1333 104.667 32.1333H111.467C111.6 32.1333 111.867 32 111.867 31.7333V14.2667C111.867 14.1333 111.733 13.8667 111.467 13.8667ZM132.933 22.9333C132.933 28 128.667 32.4 122.667 32.4C116.8 32.4 112.533 28 112.533 22.9333C112.533 17.8667 116.8 13.4667 122.8 13.4667C128.667 13.4667 132.933 17.8667 132.933 22.9333ZM125.733 23.0667C125.733 21.2 124.4 19.7333 122.8 19.8667C121.067 19.8667 119.867 21.3333 119.867 23.0667C119.867 24.8 121.2 26.2667 122.8 26.2667C124.533 26.2667 125.733 24.8 125.733 23.0667Z" fill="#F22F46"/>
</svg>
