<svg width="29" height="28" viewBox="0 0 29 28" fill="none" xmlns="http://www.w3.org/2000/svg">
<path opacity="0.6" d="M18.5745 20.981C24.2302 20.981 28.815 16.3962 28.815 10.7405C28.815 5.08482 24.2302 0.5 18.5745 0.5C12.9188 0.5 8.33398 5.08482 8.33398 10.7405C8.33398 16.3962 12.9188 20.981 18.5745 20.981Z" fill="url(#paint0_linear_1035_25629)"/>
<path opacity="0.4" d="M6.05933 26.6106C8.88804 26.6106 11.1812 24.3175 11.1812 21.4888C11.1812 18.6601 8.88804 16.3669 6.05933 16.3669C3.23062 16.3669 0.9375 18.6601 0.9375 21.4888C0.9375 24.3175 3.23062 26.6106 6.05933 26.6106Z" fill="url(#paint1_linear_1035_25629)"/>
<path d="M21.3329 27.4998C21.0742 27.4904 20.8976 27.3484 20.7368 27.156C20.0871 26.3676 19.4279 25.5886 18.7751 24.8033C18.7467 24.7686 18.7183 24.737 18.6773 24.6897C18.6521 24.7307 18.63 24.7654 18.6079 24.8001C18.2389 25.4404 17.8699 26.0806 17.4978 26.7177C17.3432 26.9857 17.0846 27.0961 16.8102 27.0141C16.6494 26.9668 16.5295 26.8659 16.457 26.7145C16.4349 26.6641 16.4129 26.6104 16.3971 26.5568C15.5266 23.5701 14.6562 20.5803 13.7889 17.5936C13.6911 17.2593 13.7889 16.9944 14.0664 16.8461C14.2525 16.7484 14.4354 16.7673 14.6183 16.8588C15.1797 17.1363 15.7411 17.4138 16.3056 17.6945C18.5386 18.8015 20.7715 19.9085 23.0075 21.0155C23.222 21.1228 23.3765 21.2678 23.3986 21.517C23.4207 21.7945 23.2756 22.0279 23.0107 22.1225C22.2948 22.3811 21.5757 22.6397 20.8566 22.8984C20.8345 22.9078 20.8125 22.9173 20.7715 22.9331C20.7999 22.9709 20.8219 23.0056 20.8472 23.0371C21.5252 23.8477 22.2033 24.6582 22.8814 25.4719C23.1589 25.8031 23.1337 26.1216 22.8057 26.3991C22.3925 26.7461 21.9794 27.0898 21.5662 27.4336L21.336 27.4998H21.3329Z" fill="url(#paint2_linear_1035_25629)"/>
<path opacity="0.4" d="M5.31205 15.1717C6.60622 15.1717 7.65535 14.1226 7.65535 12.8284C7.65535 11.5342 6.60622 10.4851 5.31205 10.4851C4.01788 10.4851 2.96875 11.5342 2.96875 12.8284C2.96875 14.1226 4.01788 15.1717 5.31205 15.1717Z" fill="url(#paint3_linear_1035_25629)"/>
<defs>
<linearGradient id="paint0_linear_1035_25629" x1="8.57293" y1="6.84912" x2="19.3182" y2="12.5421" gradientUnits="userSpaceOnUse">
<stop stop-color="#1E8AF2"/>
<stop offset="1" stop-color="#05BED7"/>
</linearGradient>
<linearGradient id="paint1_linear_1035_25629" x1="1.05701" y1="19.5425" x2="6.43132" y2="22.3898" gradientUnits="userSpaceOnUse">
<stop stop-color="#1E8AF2"/>
<stop offset="1" stop-color="#05BED7"/>
</linearGradient>
<linearGradient id="paint2_linear_1035_25629" x1="13.8645" y1="20.1038" x2="19.1463" y2="22.6229" gradientUnits="userSpaceOnUse">
<stop stop-color="#1E8AF2"/>
<stop offset="1" stop-color="#05BED7"/>
</linearGradient>
<linearGradient id="paint3_linear_1035_25629" x1="3.02343" y1="11.938" x2="5.48224" y2="13.2406" gradientUnits="userSpaceOnUse">
<stop stop-color="#1E8AF2"/>
<stop offset="1" stop-color="#05BED7"/>
</linearGradient>
</defs>
</svg>
