<svg width="24" height="22" viewBox="0 0 24 22" fill="none" xmlns="http://www.w3.org/2000/svg">
<g clip-path="url(#clip0_912_21412)">
<path d="M12.0001 13.3281C13.2624 13.3281 14.2858 12.2858 14.2858 11C14.2858 9.7143 13.2624 8.672 12.0001 8.672C10.7377 8.672 9.71436 9.7143 9.71436 11C9.71436 12.2858 10.7377 13.3281 12.0001 13.3281Z" fill="#1E8AF2"/>
<path d="M12.0001 16.2382C18.3119 16.2382 23.4287 13.893 23.4287 11.0001C23.4287 8.10714 18.3119 5.76196 12.0001 5.76196C5.68828 5.76196 0.571533 8.10714 0.571533 11.0001C0.571533 13.893 5.68828 16.2382 12.0001 16.2382Z" stroke="#1E8AF2"/>
<path d="M7.54634 13.6191C10.7023 19.1865 15.2547 22.5272 17.7145 21.0808C20.1743 19.6343 19.6099 13.9484 16.454 8.38101C13.2981 2.81358 8.74569 -0.527119 6.2859 0.919341C3.82611 2.3658 4.39043 8.05168 7.54634 13.6191Z" stroke="#1E8AF2"/>
<path d="M7.54624 8.38095C4.39032 13.9484 3.826 19.6343 6.2858 21.0807C8.74559 22.5272 13.298 19.1865 16.4539 13.6191C19.6098 8.05162 20.1742 2.36574 17.7144 0.919282C15.2546 -0.527178 10.7022 2.81353 7.54624 8.38095Z" stroke="#1E8AF2"/>
</g>
<defs>
<clipPath id="clip0_912_21412">
<rect width="24" height="22" fill="white"/>
</clipPath>
</defs>
</svg>
