<?xml version="1.0" encoding="UTF-8"?>
<svg width="153px" height="40px" viewBox="0 0 153 40" version="1.1" xmlns="http://www.w3.org/2000/svg" xmlns:xlink="http://www.w3.org/1999/xlink">
    <title>logo</title>
    <g id="Page-1" stroke="none" stroke-width="1" fill="none" fill-rule="evenodd">
        <g id="logo" transform="translate(0.000000, 0.000000)">
            <path d="M39.8315,10.7061 L41.9192,10.7061 L41.9192,7.70467 L39.8315,7.70467 L39.8315,2.59481 L36.1034,2.59481 L36.1034,7.70467 L34.0156,7.70467 L34.0156,10.7061 L36.1034,10.7061 L36.1034,20.7026 L39.8315,20.7026 L39.8315,10.7061 Z M45.9207,12.8889 C46.1883,12.2739 46.6124,11.7395 47.151,11.3386 C47.7525,10.9022 48.4832,10.6795 49.2263,10.7061 C49.9104,10.7074 50.581,10.8962 51.1649,11.2518 C51.7877,11.6272 52.2617,12.2054 52.5071,12.8889 L45.9207,12.8889 Z M56.1848,15.6423 C56.3279,14.5878 56.2517,13.5152 55.9611,12.4914 C55.7042,11.6301 55.2915,10.823 54.7433,10.1101 C54.0502,9.26088 53.164,8.58906 52.1584,8.15049 C51.2683,7.74372 50.3039,7.52419 49.3251,7.50542502 C48.3928,7.49962 47.4697,7.68979 46.616,8.06367 C45.786,8.42583 45.0282,8.93443 44.3791,9.56505 C43.7435,10.2024 43.2371,10.9562 42.8879,11.7851 C42.5236,12.6356 42.3375,13.5515 42.3411,14.4765 C42.3333,15.4139 42.5195,16.3427 42.8879,17.205 C43.2393,18.0291 43.7455,18.7785 44.3791,19.4127 C45.0267,20.0423 45.7853,20.5471 46.6166,20.9017 C47.4725,21.2675 48.3948,21.453 49.3257,21.4467 C50.9164,21.4467 52.2668,21.0209 53.377,20.1693 C54.5006,19.2995 55.3609,18.1362 55.8624,16.8082 L52.1846,16.8082 C51.9305,17.2272 51.5761,17.5766 51.1532,17.8252 C50.6975,18.1063 50.0886,18.2469 49.3264,18.2469 C48.5141,18.2731 47.7169,18.0239 47.0647,17.5399 C46.4505,17.0674 46.0197,16.3967 45.8462,15.6423 L56.1848,15.6423 Z M71.3962,12.368 C71.1691,11.6833 70.8426,11.0356 70.4269,10.4456 C70.0109,9.8568 69.5081,9.33412 68.9356,8.89531 C68.3594,8.45873 67.7177,8.11572 67.0343,7.87897 C66.3113,7.62778 65.5505,7.50194 64.785,7.5069 C63.8445,7.49928 62.913,7.68944 62.051,8.06501 C61.2264,8.42303 60.4762,8.93179 59.839,9.56505 C59.2054,10.1993 58.6992,10.9487 58.3478,11.7727 C57.981,12.6268 57.7949,13.5473 57.801,14.4765 C57.7933,15.4139 57.9794,16.3427 58.3478,17.205 C58.6992,18.0291 59.2054,18.7785 59.839,19.4127 C60.4745,20.0453 61.2253,20.5507 62.051,20.9017 C62.915,21.2693 63.8458,21.4551 64.785,21.4474 C65.5495,21.4524 66.3096,21.3308 67.0343,21.0877 C67.7289,20.8531 68.3797,20.5052 68.9605,20.0583 C69.5384,19.6304 70.0421,19.1109 70.4517,18.5204 C70.8633,17.9306 71.174,17.2768 71.3713,16.5856 L67.6936,16.5856 C67.4007,17.0435 66.9996,17.4226 66.5254,17.6894 C66.0078,17.9715 65.4249,18.1127 64.8354,18.0987 C64.3444,18.1034 63.8578,18.0063 63.4062,17.8138 C62.9749,17.6288 62.5826,17.3636 62.2505,17.0324 C61.9147,16.7116 61.6519,16.3225 61.4801,15.8914 C61.2973,15.4424 61.2044,14.9621 61.2067,14.4775 C61.2036,13.9968 61.2966,13.5204 61.4801,13.076 C61.6579,12.6444 61.9198,12.2524 62.2505,11.9225 C62.5897,11.6032 62.9804,11.3432 63.4062,11.1536 C63.8556,10.953 64.3431,10.8514 64.8354,10.8559 C65.422,10.8421 66.0028,10.9742 66.5254,11.2404 C67.0152,11.5057 67.4264,11.895 67.7178,12.369 L71.3962,12.368 Z M85.8612,12.3432 C85.8592,11.7048 85.7326,11.0729 85.4884,10.4828 C85.2442,9.87776 84.8903,9.32278 84.4446,8.8457 C83.9885,8.35981 83.4446,7.96426 82.8415,7.67986 C82.1925,7.37614 81.4829,7.22347 80.7661,7.23337 C80.2216,7.22515 79.6796,7.30902 79.1631,7.48142 C78.7439,7.62254 78.3401,7.80536 77.9576,8.02713 C77.6863,8.18177 77.4322,8.3647 77.1996,8.57285 C77.0256,8.73822 76.9304,8.82917 76.9141,8.8457 L76.9141,2.59413 L73.3103,2.59413 L73.3103,20.7026 L76.9141,20.7026 L76.9141,12.8641 C76.9173,12.5292 76.9883,12.1983 77.1228,11.8914 C77.2574,11.5845 77.4527,11.3079 77.697,11.0782 C77.9418,10.822 78.2372,10.6192 78.5644,10.4826 C78.8916,10.346 79.2437,10.2785 79.5983,10.2844 C79.9491,10.2802 80.2969,10.3486 80.6199,10.4852 C80.9428,10.6218 81.2339,10.8237 81.4748,11.0782 C81.7209,11.3116 81.9171,11.5923 82.0516,11.9034 C82.1862,12.2144 82.2563,12.5495 82.2577,12.8883 L82.2577,20.7019 L85.8616,20.7019 L85.8612,12.3432 Z M101.296,12.368 C101.069,11.6833 100.742,11.0356 100.326,10.4456 C99.9104,9.8568 99.4076,9.33412 98.8351,8.89531 C98.2589,8.45873 97.6172,8.11572 96.9337,7.87897 C96.2107,7.62778 95.45,7.50194 94.6844,7.5069 C93.744,7.49928 92.8124,7.68944 91.9505,8.06501 C91.1257,8.42296 90.3752,8.93172 89.7378,9.56505 C89.1042,10.1993 88.598,10.9487 88.2466,11.7727 C87.8798,12.6268 87.6937,13.5473 87.6998,14.4765 C87.692,15.4139 87.8782,16.3427 88.2466,17.205 C88.598,18.0291 89.1042,18.7785 89.7378,19.4127 C90.3734,20.0454 91.1245,20.5508 91.9505,20.9017 C92.8145,21.2693 93.7452,21.4551 94.6844,21.4474 C95.449,21.4521 96.2091,21.3304 96.9337,21.087 C97.6283,20.8524 98.2792,20.5046 98.8599,20.0576 C99.4378,19.6297 99.9416,19.1102 100.351,18.5197 C100.763,17.93 101.074,17.2761 101.271,16.5849 L97.593,16.5849 C97.3002,17.0428 96.899,17.4219 96.4249,17.6887 C95.9073,17.9709 95.3244,18.112 94.7348,18.098 C94.2438,18.1027 93.7572,18.0057 93.3057,17.8131 C92.8743,17.6281 92.4821,17.363 92.15,17.0317 C91.8141,16.7109 91.5514,16.3218 91.3795,15.8907 C91.1968,15.4417 91.1039,14.9614 91.1061,14.4768 C91.1031,13.9962 91.196,13.5197 91.3795,13.0753 C91.5573,12.6437 91.8192,12.2517 92.15,11.9219 C92.4891,11.6025 92.8799,11.3425 93.3057,11.1529 C93.7551,10.9523 94.2425,10.8508 94.7348,10.8553 C95.3214,10.8414 95.9022,10.9735 96.4249,11.2397 C96.9146,11.505 97.3259,11.8943 97.6172,12.3684 L101.296,12.368 Z M115.761,12.3432 C115.759,11.7048 115.632,11.0729 115.388,10.4828 C115.144,9.87776 114.79,9.32278 114.344,8.8457 C113.888,8.35981 113.344,7.96426 112.741,7.67986 C112.092,7.37614 111.382,7.22347 110.666,7.23337 C110.121,7.22515 109.579,7.30902 109.063,7.48142 C108.643,7.62254 108.24,7.80536 107.857,8.02713 C107.586,8.18177 107.332,8.3647 107.099,8.57285 C106.925,8.73822 106.83,8.82917 106.814,8.8457 L106.814,2.59413 L103.209,2.59413 L103.209,20.7026 L106.813,20.7026 L106.813,12.8641 C106.816,12.5292 106.887,12.1983 107.022,11.8914 C107.156,11.5845 107.352,11.3079 107.596,11.0782 C107.841,10.822 108.136,10.6192 108.464,10.4826 C108.791,10.346 109.143,10.2785 109.497,10.2844 C109.848,10.2802 110.196,10.3486 110.519,10.4852 C110.842,10.6218 111.133,10.8237 111.374,11.0782 C111.62,11.3116 111.816,11.5923 111.951,11.9034 C112.085,12.2144 112.155,12.5495 112.157,12.8883 L112.157,20.7019 L115.761,20.7019 L115.761,12.3432 Z M121.204,12.8889 C121.471,12.2739 121.895,11.7395 122.434,11.3386 C123.036,10.9022 123.766,10.6795 124.509,10.7061 C125.193,10.7074 125.864,10.8962 126.448,11.2518 C127.071,11.6272 127.545,12.2054 127.79,12.8889 L121.204,12.8889 Z M131.469,15.6423 C131.612,14.5878 131.536,13.5152 131.245,12.4914 C130.989,11.6301 130.576,10.823 130.028,10.1101 C129.334,9.26104 128.448,8.58945 127.442,8.15116 C126.552,7.74439 125.588,7.52486 124.609,7.50609457 C123.676,7.50028 122.753,7.69045 121.9,8.06434 C121.07,8.42636 120.312,8.93473 119.663,9.56505 C119.028,10.2024 118.521,10.9562 118.172,11.7851 C117.808,12.6356 117.622,13.5515 117.625,14.4765 C117.618,15.4139 117.804,16.3427 118.172,17.205 C118.524,18.0291 119.03,18.7785 119.663,19.4127 C120.311,20.042 121.069,20.5465 121.9,20.901 C122.756,21.2669 123.678,21.4527 124.609,21.4467 C126.199,21.4467 127.55,21.0209 128.66,20.1693 C129.784,19.2995 130.644,18.1362 131.145,16.8082 L127.468,16.8082 C127.214,17.2272 126.859,17.5766 126.436,17.8252 C125.981,18.1063 125.372,18.2469 124.609,18.2469 C123.797,18.2731 123,18.0239 122.348,17.5399 C121.734,17.0673 121.303,16.3966 121.13,15.6423 L131.469,15.6423 Z M134.153,10.7061 L134.153,20.7026 L137.906,20.7026 L137.906,10.7061 L140.217,10.7061 L140.217,7.70467 L137.881,7.70467 L137.868,7.53103 C137.861,7.39037 137.865,7.24931 137.881,7.10934 C137.92,6.94348 137.974,6.78155 138.042,6.62564 C138.122,6.44509 138.246,6.28735 138.403,6.16675 C138.562,6.02127 138.754,5.91509 138.962,5.85668 C139.152,5.80127 139.349,5.77206 139.547,5.76987 C139.7,5.75236 139.855,5.75653 140.007,5.78227 C140.131,5.80707 140.201,5.81948 140.218,5.81948 L140.218,2.61961 C140.184,2.61961 140.023,2.61134 139.733,2.59481 C139.38,2.5812 139.027,2.59802 138.677,2.64509 C138.229,2.72436 137.788,2.84051 137.36,2.99236 C136.874,3.16043 136.427,3.42166 136.042,3.76132 C135.573,4.16769 135.171,4.64475 134.85,5.17521 C134.613,5.57138 134.43,5.99665 134.303,6.44028 C134.2,6.73097 134.145,7.0368 134.142,7.34533 L134.154,7.705 L132.314,7.705 L132.314,10.7064 L134.153,10.7061 Z M142.056,7.97752 L142.056,11.1284 L147.897,11.1284 L141.584,17.9499 L141.584,21.0002 L152.768,21.0002 L152.768,17.8252 L145.984,17.8252 L152.296,11.0286 L152.296,7.97819 L142.056,7.97752 Z" id="Shape" fill="#000000" fill-rule="nonzero"></path>
            <path d="M14.6452,32.2417 L14.6956,32.2417 C15.7704,30.7376 17.0853,30.1052 18.8382,30.3538 C20.6982,30.7472 21.8017,32.2858 22.8326,34.718 C23.5609,36.4327 25.0584,37.2069 26.6726,37.3641 C23.7091,40.5756 19.7084,40.5756 14.6704,37.3641 C9.62614,40.584 5.62435,40.584 2.66504,37.3641 C4.2824,37.2067 5.77986,36.4202 6.50818,34.718 C7.53912,32.2858 8.64261,30.7472 10.4994,30.3538 C12.2555,30.1084 13.5701,30.7408 14.6452,32.2417 Z" id="Path" fill="#018BD6"></path>
            <path d="M5.63175,0.195089 C6.46434,0.194571 7.28608,0.383535 8.0345,0.747612 C8.78292,1.11169 9.4383,1.64129 9.95082,2.29615 C10.2481,1.86809 10.6084,1.48725 11.0195,1.16651 L11.0195,8.41364 C10.9105,8.55216 10.8363,8.71468 10.8031,8.88765 C10.7698,9.06062 10.7785,9.23902 10.8284,9.40796 C10.8783,9.5769 10.968,9.73147 11.0899,9.85879 C11.2118,9.9861 11.3625,10.0825 11.5294,10.1398 C11.6962,10.1972 11.8744,10.2139 12.049,10.1885 C12.2237,10.1632 12.3897,10.0965 12.5333,9.99411 C12.6768,9.89168 12.7938,9.75647 12.8743,9.59976 C12.9548,9.44306 12.9967,9.26939 12.9963,9.09327 C12.9956,8.84727 12.9136,8.60837 12.763,8.41364 L12.763,0.2328 C13.097,0.125396 13.4399,0.0474963 13.7876,0 L13.7876,11.2964 C13.2727,11.499 12.8447,11.8745 12.5776,12.3583 C12.3104,12.842 12.2207,13.4037 12.324,13.9463 C12.4273,14.489 12.7171,14.9787 13.1434,15.3309 C13.5697,15.6832 14.1059,15.8759 14.6593,15.8759 C15.2128,15.8759 15.7489,15.6832 16.1752,15.3309 C16.6015,14.9787 16.8913,14.489 16.9946,13.9463 C17.0979,13.4037 17.0083,12.842 16.7411,12.3583 C16.4739,11.8745 16.046,11.499 15.5311,11.2964 L15.5311,0.0125702 C15.9618,0.0705729 16.3847,0.176081 16.7921,0.32716 L16.7921,5.87128 L16.7921,7.61133 L20.3546,7.61133 C20.4934,7.72011 20.6562,7.79418 20.8295,7.82736 C21.0029,7.86055 21.1816,7.85188 21.3509,7.80208 C21.5201,7.75228 21.675,7.6628 21.8026,7.5411 C21.9302,7.4194 22.0267,7.26902 22.0842,7.1025 C22.1417,6.93598 22.1584,6.75815 22.133,6.58386 C22.1076,6.40957 22.0408,6.24387 21.9382,6.10059 C21.8356,5.95731 21.7001,5.84061 21.5431,5.76022 C21.386,5.67983 21.212,5.63809 21.0356,5.63848 C20.7887,5.63701 20.5487,5.71907 20.3546,5.87128 L18.5355,5.87128 L18.5355,1.3844 C18.8875,1.69625 19.1932,2.05645 19.4436,2.4542 C19.9874,1.70642 20.712,1.10825 21.55,0.715473 C22.388,0.322698 23.312,0.148108 24.2359,0.207985 C25.1597,0.267862 26.0534,0.560255 26.8334,1.0579 C27.6135,1.55554 28.2545,2.24223 28.6969,3.05393 C29.1392,3.86562 29.3684,4.77589 29.3630933,5.69986 C29.3577,6.62382 29.118,7.53139 28.6662,8.33792 C28.2145,9.14445 27.5655,9.82369 26.7798,10.3123 C25.994,10.8009 25.097,11.083 24.1726,11.1322 L24.1726,21.635 L5.33216,21.635 L5.33216,11.1322 C4.61252,11.1125 3.90381,10.9516 3.24649,10.6586 C2.58916,10.3656 1.9961,9.94631 1.50115,9.42457 C1.00621,8.90283 0.619071995,8.28891 0.361854995,7.61785 C0.104638995,6.9468 -0.0176244046,6.23175 0.00204711544,5.51353 C0.0217185954,4.79532 0.182938995,4.088 0.476503995,3.43197 C0.770069995,2.77594 1.19023,2.18404 1.713,1.69007 C2.23576,1.1961 2.8509,0.809727 3.52328,0.553016 C4.19566,0.296306 4.91212,0.174283 5.63175,0.193916 L5.63175,0.195089 Z M14.645,12.1076 C14.9274,12.1076 15.2033,12.1912 15.4381,12.3477 C15.6728,12.5042 15.8558,12.7267 15.9638,12.987 C16.0719,13.2474 16.1001,13.5338 16.045,13.8101 C15.99,14.0865 15.854,14.3403 15.6544,14.5396 C15.4548,14.7388 15.2004,14.8745 14.9235,14.9295 C14.6466,14.9844 14.3596,14.9562 14.0988,14.8484 C13.838,14.7406 13.615,14.558 13.4582,14.3237 C13.3013,14.0894 13.2176,13.814 13.2176,13.5322 C13.2176,13.1544 13.368,12.792 13.6357,12.5249 C13.9034,12.2577 14.2665,12.1076 14.645,12.1076 Z" id="Shape" fill="#018BD6"></path>
            <polygon id="Path" fill="#018BD6" fill-rule="nonzero" points="2.6875 27.053 2.6875 26.0022 6.14289 23.4315 6.14289 24.5611 3.40289 26.5338 6.14255 28.5318 6.14255 29.6614"></polygon>
            <polygon id="Path" fill="#018BD6" fill-rule="nonzero" points="26.6059 27.053 26.6059 26.0022 23.1475 23.4315 23.1475 24.5611 25.8903 26.5338 23.1475 28.532 23.1475 29.6616"></polygon>
            <path d="M11.8017,27.1766 L12.4323,27.2584 C12.3498,27.593 12.1552,27.8894 11.8806,28.0984 C11.5849,28.3142 11.2253,28.425 10.8591,28.413 C10.6303,28.4241 10.4017,28.3871 10.1882,28.3041 C9.97468,28.2212 9.78111,28.0943 9.62008,27.9316 C9.29689,27.5585 9.13282,27.074 9.16297,26.5818 C9.13145,26.0757 9.29757,25.5771 9.62646,25.1907 C9.77897,25.0263 9.96527,24.8968 10.1726,24.811 C10.3799,24.7252 10.6034,24.6851 10.8277,24.6935 C11.0456,24.6861 11.2625,24.7255 11.4638,24.8091 C11.665,24.8927 11.8459,25.0185 11.9941,25.1781 C12.3166,25.5588 12.479,26.0492 12.4476,26.5467 L12.4476,26.7073 L9.78398,26.7073 C9.77754,27.0343 9.88945,27.3527 10.0992,27.604 C10.1939,27.7058 10.3092,27.7865 10.4374,27.8407 C10.5656,27.8949 10.7039,27.9215 10.8431,27.9186 C11.0463,27.9254 11.246,27.8645 11.4106,27.7454 C11.5873,27.5988 11.7176,27.4043 11.7857,27.1853 L11.8017,27.1766 Z M9.81858,26.2098 L11.8079,26.2098 C11.8007,25.9665 11.7206,25.7309 11.5778,25.5334 C11.4891,25.4212 11.3754,25.3312 11.2457,25.2705 C11.116,25.2099 10.9739,25.1803 10.8307,25.1841 C10.701,25.1804 10.572,25.2033 10.4516,25.2515 C10.3311,25.2997 10.222,25.3721 10.1308,25.4642 C9.93459,25.6637 9.82204,25.9304 9.81606,26.2098 L9.81858,26.2098 Z" id="Shape" fill="#231F20" fill-rule="nonzero"></path>
            <path d="M19.5036,27.1759 L20.1342,27.2577 C20.049,27.5928 19.8526,27.8892 19.577,28.0986 C19.2817,28.3129 18.9236,28.4235 18.5586,28.4131 C18.3298,28.4243 18.1012,28.3872 17.8877,28.3043 C17.6742,28.2213 17.4806,28.0944 17.3196,27.9318 C16.9964,27.5587 16.8324,27.0742 16.8625,26.5819 C16.8297,26.0762 16.9947,25.5776 17.3228,25.1908 C17.4764,25.0271 17.6633,24.898 17.871,24.8123 C18.0787,24.7265 18.3024,24.6861 18.527,24.6937 C18.7449,24.6862 18.9619,24.7257 19.1631,24.8093 C19.3644,24.8929 19.5453,25.0187 19.6935,25.1783 C20.0096,25.5591 20.1673,26.0464 20.1342,26.5399 C20.1342,26.5745 20.1342,26.628 20.1342,26.7003 L17.4765,26.7003 C17.4756,27.0296 17.5943,27.3482 17.8106,27.5969 C17.9054,27.6988 18.0207,27.7795 18.1489,27.8337 C18.2771,27.8879 18.4154,27.9144 18.5546,27.9115 C18.7576,27.9174 18.957,27.8566 19.122,27.7384 C19.3026,27.593 19.4354,27.3972 19.5036,27.1759 Z M17.5114,26.2098 L19.5036,26.2098 C19.4986,25.9666 19.4194,25.7306 19.2765,25.5334 C19.1876,25.4214 19.0739,25.3315 18.9442,25.2709 C18.8146,25.2103 18.6725,25.1806 18.5294,25.1841 C18.3997,25.1804 18.2707,25.2033 18.1503,25.2515 C18.0298,25.2997 17.9206,25.3721 17.8295,25.4642 C17.6344,25.6645 17.5219,25.9306 17.5142,26.2098 L17.5114,26.2098 Z" id="Shape" fill="#231F20" fill-rule="nonzero"></path>
        </g>
    </g>
</svg>