<?xml version="1.0" encoding="UTF-8"?>
<svg width="184px" height="48px" viewBox="0 0 184 48" version="1.1" xmlns="http://www.w3.org/2000/svg" xmlns:xlink="http://www.w3.org/1999/xlink">
    <title>logo-white</title>
    <g id="Page-1" stroke="none" stroke-width="1" fill="none" fill-rule="evenodd">
        <g id="logo-white" fill="#FFFFFF">
            <path d="M47.7984,12.8474 L50.3037,12.8474 L50.3037,9.24571 L47.7984,9.24571 L47.7984,3.11388 L43.3246,3.11388 L43.3246,9.24571 L40.8193,9.24571 L40.8193,12.8474 L43.3246,12.8474 L43.3246,24.8432 L47.7984,24.8432 L47.7984,12.8474 Z M55.1055,15.4668 C55.4266,14.7288 55.9355,14.0875 56.5818,13.6065 C57.3036,13.0828 58.1804,12.8155 59.0722,12.8474 C59.8931,12.849 60.6978,13.0755 61.3985,13.5023 C62.1458,13.9527 62.7146,14.6466 63.0091,15.4668 L55.1055,15.4668 Z M67.4223,18.7709 C67.5941,17.5055 67.5027,16.2184 67.1539,14.9898 C66.8456,13.9562 66.3503,12.9877 65.6925,12.1322 C64.8608,11.1132 63.7974,10.307 62.5907,9.7807 C61.5226,9.29258 60.3652,9.02914 59.1907,9.00661793 C58.0719,8.99965 56.9642,9.22785 55.9398,9.67652 C54.9437,10.1111 54.0344,10.7214 53.2555,11.4782 C52.4927,12.2429 51.8851,13.1475 51.466,14.1422 C51.0289,15.1629 50.8056,16.2619 50.8099,17.3719 C50.8006,18.4967 51.024,19.6114 51.466,20.6462 C51.8878,21.635 52.4952,22.5343 53.2555,23.2953 C54.0327,24.0508 54.943,24.6566 55.9406,25.0821 C56.9676,25.521 58.0743,25.7437 59.1915,25.7362 C61.1003,25.7362 62.7208,25.2252 64.0529,24.2032 C65.4013,23.1596 66.4337,21.7635 67.0354,20.1699 L62.6221,20.1699 C62.3172,20.6727 61.8919,21.0921 61.3844,21.3903 C60.8376,21.7277 60.1069,21.8963 59.1923,21.8963 C58.2175,21.9278 57.2608,21.6288 56.4782,21.048 C55.7411,20.481 55.2243,19.6761 55.016,18.7709 L67.4223,18.7709 Z M85.676,14.8418 C85.4036,14.0201 85.0117,13.2428 84.5128,12.5349 C84.0137,11.8283 83.4104,11.2011 82.7233,10.6745 C82.0319,10.1506 81.2618,9.73897 80.4417,9.45488 C79.5741,9.15344 78.6612,9.00243 77.7426,9.00839 C76.614,8.99924 75.4961,9.22744 74.4618,9.67812 C73.4723,10.1077 72.572,10.7183 71.8074,11.4782 C71.0471,12.2393 70.4397,13.1385 70.0179,14.1274 C69.5778,15.1523 69.3545,16.2568 69.3618,17.3719 C69.3525,18.4967 69.5759,19.6114 70.0179,20.6462 C70.4397,21.635 71.0471,22.5343 71.8074,23.2953 C72.5699,24.0544 73.4709,24.6609 74.4618,25.0821 C75.4986,25.5233 76.6155,25.7462 77.7426,25.737 C78.66,25.7429 79.5721,25.5971 80.4417,25.3054 C81.2752,25.0238 82.0563,24.6064 82.7531,24.0701 C83.4467,23.5566 84.0512,22.9332 84.5426,22.2246 C85.0365,21.5169 85.4094,20.7323 85.6462,19.9028 L81.2329,19.9028 C80.8815,20.4523 80.4001,20.9072 79.8311,21.2274 C79.21,21.5659 78.5105,21.7353 77.803,21.7185 C77.2138,21.7241 76.6299,21.6077 76.0881,21.3766 C75.5704,21.1547 75.0998,20.8365 74.7012,20.439 C74.2982,20.054 73.9829,19.5871 73.7767,19.0698 C73.5574,18.531 73.4459,17.9546 73.4486,17.3731 C73.4449,16.7963 73.5565,16.2246 73.7767,15.6913 C73.99,15.1734 74.3043,14.7029 74.7012,14.3072 C75.1082,13.9239 75.5771,13.6119 76.0881,13.3844 C76.6273,13.1437 77.2123,13.0218 77.803,13.0272 C78.5069,13.0106 79.2039,13.1692 79.8311,13.4886 C80.4188,13.807 80.9123,14.2741 81.2619,14.843 L85.676,14.8418 Z M103.034,14.812 C103.032,14.0459 102.88,13.2876 102.587,12.5795 C102.294,11.8534 101.869,11.1874 101.334,10.615 C100.787,10.0319 100.134,9.55723 99.4103,9.21594 C98.6316,8.85148 97.78,8.66827 96.92,8.68015 C96.2665,8.67028 95.6161,8.77093 94.9963,8.97781 C94.4933,9.14716 94.0087,9.36655 93.5498,9.63267 C93.2242,9.81823 92.9193,10.0377 92.6401,10.2875 C92.4313,10.486 92.3171,10.5951 92.2975,10.615 L92.2975,3.11307 L87.9729,3.11307 L87.9729,24.8432 L92.2975,24.8432 L92.2975,15.4371 C92.3013,15.0351 92.3865,14.638 92.548,14.2697 C92.7094,13.9015 92.9438,13.5695 93.237,13.2939 C93.5308,12.9865 93.8852,12.7432 94.2779,12.5792 C94.6706,12.4153 95.093,12.3343 95.5186,12.3414 C95.9395,12.3364 96.3569,12.4184 96.7444,12.5824 C97.132,12.7463 97.4813,12.9886 97.7704,13.2939 C98.0656,13.574 98.3011,13.9109 98.4625,14.2842 C98.624,14.6574 98.7081,15.0595 98.7099,15.466 L98.7099,24.8424 L103.034,24.8424 L103.034,14.812 Z M121.555,14.8418 C121.283,14.0201 120.891,13.2428 120.392,12.5349 C119.893,11.8283 119.29,11.2011 118.603,10.6745 C117.911,10.1506 117.141,9.73897 116.321,9.45488 C115.453,9.15344 114.541,9.00243 113.622,9.00839 C112.493,8.99924 111.375,9.22744 110.341,9.67812 C109.351,10.1077 108.451,10.7182 107.686,11.4782 C106.926,12.2393 106.318,13.1385 105.896,14.1274 C105.456,15.1523 105.233,16.2568 105.24,17.3719 C105.231,18.4967 105.454,19.6114 105.896,20.6462 C106.318,21.635 106.926,22.5343 107.686,23.2953 C108.449,24.0545 109.35,24.661 110.341,25.0821 C111.378,25.5233 112.495,25.7462 113.622,25.737 C114.539,25.7427 115.451,25.5966 116.321,25.3046 C117.155,25.023 117.936,24.6056 118.632,24.0693 C119.326,23.5558 119.931,22.9324 120.422,22.2238 C120.916,21.5161 121.289,20.7315 121.526,19.902 L117.112,19.902 C116.761,20.4515 116.279,20.9064 115.71,21.2266 C115.089,21.5651 114.39,21.7345 113.682,21.7177 C113.093,21.7233 112.509,21.6069 111.967,21.3758 C111.45,21.1539 110.979,20.8357 110.581,20.4382 C110.178,20.0532 109.862,19.5863 109.656,19.069 C109.437,18.5302 109.325,17.9538 109.328,17.3723 C109.324,16.7955 109.436,16.2238 109.656,15.6905 C109.869,15.1726 110.184,14.7021 110.581,14.3064 C110.988,13.9231 111.456,13.6111 111.967,13.3836 C112.507,13.1429 113.092,13.021 113.682,13.0264 C114.386,13.0098 115.083,13.1684 115.71,13.4878 C116.298,13.8062 116.792,14.2733 117.141,14.8422 L121.555,14.8418 Z M138.913,14.812 C138.911,14.0459 138.759,13.2876 138.466,12.5795 C138.173,11.8534 137.748,11.1874 137.213,10.615 C136.666,10.0319 136.013,9.55723 135.29,9.21594 C134.511,8.85148 133.659,8.66827 132.799,8.68015 C132.146,8.67028 131.495,8.77093 130.876,8.97781 C130.373,9.14716 129.888,9.36655 129.429,9.63267 C129.104,9.81823 128.799,10.0377 128.519,10.2875 C128.311,10.486 128.196,10.5951 128.177,10.615 L128.177,3.11307 L123.852,3.11307 L123.852,24.8432 L128.176,24.8432 L128.176,15.4371 C128.18,15.0351 128.265,14.638 128.427,14.2697 C128.588,13.9015 128.823,13.5695 129.116,13.2939 C129.41,12.9865 129.764,12.7432 130.157,12.5792 C130.549,12.4153 130.972,12.3343 131.398,12.3414 C131.818,12.3364 132.236,12.4184 132.623,12.5824 C133.011,12.7463 133.36,12.9886 133.649,13.2939 C133.945,13.574 134.18,13.9109 134.341,14.2842 C134.503,14.6574 134.587,15.0595 134.589,15.466 L134.589,24.8424 L138.913,24.8424 L138.913,14.812 Z M145.445,15.4668 C145.766,14.7288 146.275,14.0875 146.921,13.6065 C147.643,13.0828 148.52,12.8155 149.412,12.8474 C150.233,12.849 151.037,13.0755 151.738,13.5023 C152.485,13.9527 153.054,14.6466 153.349,15.4668 L145.445,15.4668 Z M157.764,18.7709 C157.935,17.5055 157.844,16.2184 157.495,14.9898 C157.187,13.9562 156.692,12.9877 156.034,12.1322 C155.202,11.1134 154.138,10.3074 152.931,9.7815 C151.863,9.29338 150.706,9.02994 149.531,9.00741793 C148.412,9.00045 147.305,9.22865 146.28,9.67732 C145.285,10.1117 144.375,10.7218 143.597,11.4782 C142.834,12.2429 142.226,13.1475 141.807,14.1422 C141.37,15.1629 141.147,16.2619 141.151,17.3719 C141.142,18.4967 141.365,19.6114 141.807,20.6462 C142.229,21.635 142.836,22.5343 143.597,23.2953 C144.374,24.0505 145.284,24.6559 146.281,25.0813 C147.308,25.5204 148.414,25.7433 149.531,25.7363644 C151.44,25.7363644 153.06,25.2252 154.393,24.2032 C155.741,23.1596 156.773,21.7635 157.375,20.1699 L152.962,20.1699 C152.657,20.6727 152.231,21.0921 151.724,21.3903 C151.177,21.7277 150.447,21.8963 149.532,21.8963 C148.557,21.9278 147.6,21.6288 146.818,21.048 C146.081,20.4809 145.564,19.676 145.356,18.7709 L157.764,18.7709 Z M160.984,12.8474 L160.984,24.8432 L165.487,24.8432 L165.487,12.8474 L168.261,12.8474 L168.261,9.24571 L165.458,9.24571 L165.443,9.03735 C165.433,8.86855 165.438,8.69929 165.458,8.53132 C165.504,8.33228 165.569,8.13797 165.651,7.95088 C165.747,7.73422 165.896,7.54493 166.084,7.40021 C166.275,7.22564 166.505,7.09822 166.755,7.02813 C166.983,6.96163 167.219,6.92658 167.457,6.92395 C167.64,6.90294 167.826,6.90795 168.008,6.93883 C168.158,6.9686 168.242,6.98348 168.262,6.98348 L168.262,3.14364 C168.222,3.14364 168.028,3.13372 167.68,3.11388 C167.257,3.09755 166.833,3.11774 166.413,3.17421 C165.875,3.26934 165.347,3.40873 164.832,3.59094 C164.25,3.79263 163.713,4.1061 163.251,4.51369 C162.689,5.00134 162.206,5.57381 161.821,6.21036 C161.537,6.68577 161.316,7.1961 161.164,7.72844 C161.04,8.07727 160.975,8.44427 160.971,8.8145 L160.985,9.24611 L158.777,9.24611 L158.777,12.8478 L160.984,12.8474 Z M170.468,9.57314 L170.468,13.3542 L177.477,13.3542 L169.901,21.5399 L169.901,25.2004 L183.323,25.2004 L183.323,21.3903 L175.181,21.3903 L182.756,13.2344 L182.756,9.57394 L170.468,9.57314 Z" id="Shape" fill-rule="nonzero"></path>
            <path d="M17.5744,38.6899 L17.6349,38.6899 C18.9246,36.885 20.5025,36.1262 22.606,36.4245 C24.838,36.8965 26.1622,38.7428 27.3993,41.6615 C28.2733,43.7192 30.0703,44.6482 32.0073,44.8368 C28.4511,48.6906 23.6503,48.6906 17.6047,44.8368 C11.5516,48.7007 6.74942001,48.7007 3.19824001,44.8368 C5.13908001,44.648 6.93603001,43.7041 7.81002001,41.6615 C9.04715001,38.7428 10.3713,36.8965 12.5995,36.4245 C14.7068,36.13 16.2843,36.8889 17.5744,38.6899 Z" id="Path"></path>
            <path d="M6.75810001,0.234107 C7.75720001,0.233485 8.74330001,0.460242 9.64140001,0.897135 C10.5395,1.33403 11.326,1.96955 11.941,2.75538 C12.2977,2.2417 12.7301,1.7847 13.2235,1.39982 L13.2235,10.0964 C13.0927,10.2626 13.0036,10.4576 12.9637,10.6652 C12.9238,10.8727 12.9342,11.0868 12.9941,11.2895 C13.054,11.4923 13.1616,11.6778 13.3079,11.8305 C13.4542,11.9833 13.635,12.099 13.8353,12.1678 C14.0355,12.2366 14.2493,12.2567 14.4588,12.2263 C14.6684,12.1958 14.8676,12.1158 15.0399,11.9929 C15.2122,11.87 15.3525,11.7078 15.4492,11.5197 C15.5458,11.3317 15.596,11.1233 15.5955,10.9119 C15.5948,10.6167 15.4964,10.33 15.3156,10.0964 L15.3156,0.27936 C15.7165,0.150475 16.1279,0.0569956 16.5451,0 L16.5451,13.5557 C15.9272,13.7988 15.4137,14.2494 15.0931,14.8299 C14.7724,15.4104 14.6648,16.0844 14.7888,16.7356 C14.9128,17.3868 15.2605,17.9744 15.7721,18.3971 C16.2837,18.8198 16.927,19.0511 17.5912,19.0511 C18.2553,19.0511 18.8987,18.8198 19.4103,18.3971 C19.9219,17.9744 20.2696,17.3868 20.3936,16.7356 C20.5175,16.0844 20.4099,15.4104 20.0893,14.8299 C19.7687,14.2494 19.2552,13.7988 18.6373,13.5557 L18.6373,0.0150842 C19.1541,0.0846874 19.6616,0.211298 20.1505,0.392592 L20.1505,7.04554 L20.1505,9.13359 L24.4255,9.13359 C24.5921,9.26413 24.7875,9.35302 24.9955,9.39284 C25.2034,9.43266 25.4179,9.42226 25.6211,9.3625 C25.8242,9.30274 26.01,9.19536 26.1631,9.04932 C26.3162,8.90328 26.4321,8.72282 26.501,8.523 C26.57,8.32317 26.5901,8.10978 26.5596,7.90063 C26.5291,7.69148 26.449,7.49264 26.3258,7.32071 C26.2027,7.14877 26.0401,7.00873 25.8517,6.91226 C25.6633,6.8158 25.4544,6.76571 25.2427,6.76618 C24.9465,6.76441 24.6584,6.86288 24.4255,7.04554 L22.2427,7.04554 L22.2427,1.66128 C22.665,2.0355 23.0319,2.46774 23.3323,2.94504 C23.9848,2.0477 24.8545,1.3299 25.86,0.858568 C26.8656,0.387237 27.9744,0.17773 29.0831,0.249582 C30.1917,0.321434 31.264,0.672306 32.2001,1.26948 C33.1362,1.86665 33.9055,2.69067 34.4363,3.66471 C34.967,4.63875 35.2421,5.73107 35.2357126,6.83983 C35.2292,7.94859 34.9415,9.03766 34.3995,10.0055 C33.8574,10.9733 33.0786,11.7884 32.1357,12.3748 C31.1928,12.9611 30.1165,13.2995 29.0071,13.3586 L29.0071,25.962 L6.39859001,25.962 L6.39859001,13.3586 C5.53503001,13.335 4.68458001,13.1419 3.89579001,12.7904 C3.10700001,12.4388 2.39532001,11.9356 1.80138001,11.3095 C1.20745001,10.6834 0.742887012,9.94669 0.434227012,9.14143 C0.125566012,8.33616 -0.0211492882,7.4781 0.00245655179,6.61624 C0.0260624118,5.75438 0.219527012,4.9056 0.571805012,4.11837 C0.924084012,3.33113 1.42828001,2.62085 2.05559001,2.02808 C2.68291001,1.43532 3.42108001,0.971672 4.22793001,0.663619 C5.03479001,0.355567 5.89454001,0.20914 6.75810001,0.232699 L6.75810001,0.234107 Z M17.5741,14.5291 C17.9128,14.5291 18.244,14.6294 18.5257,14.8172 C18.8074,15.0051 19.0269,15.2721 19.1566,15.5844 C19.2862,15.8968 19.3202,16.2406 19.2541,16.5722 C19.188,16.9038 19.0248,17.2084 18.7853,17.4475 C18.5457,17.6866 18.2405,17.8494 17.9082,17.9154 C17.576,17.9813 17.2315,17.9475 16.9186,17.8181 C16.6056,17.6887 16.338,17.4696 16.1498,17.1884 C15.9616,16.9073 15.8611,16.5768 15.8611,16.2387 C15.8611,15.7853 16.0416,15.3504 16.3628,15.0298 C16.6841,14.7092 17.1198,14.5291 17.5741,14.5291 Z" id="Shape"></path>
            <polygon id="Path" fill-rule="nonzero" points="3.22461001 32.464 3.22461001 31.203 7.37108001 28.1182 7.37108001 29.4737 4.08308001 31.8409 7.37067001 34.2385 7.37067001 35.5941"></polygon>
            <polygon id="Path" fill-rule="nonzero" points="31.9274 32.464 31.9274 31.203 27.7773 28.1182 27.7773 29.4737 31.0688 31.8409 27.7773 34.2387 27.7773 35.5943"></polygon>
            <path d="M14.1613,32.6118 L14.918,32.71 C14.819,33.1115 14.5854,33.4672 14.256,33.718 C13.9011,33.977 13.4695,34.1099 13.0301,34.0955 C12.7555,34.1089 12.4812,34.0644 12.225,33.9649 C11.9688,33.8653 11.7366,33.713 11.5433,33.5179 C11.1555,33.0702 10.9586,32.4888 10.9948,31.898 C10.957,31.2907 11.1563,30.6925 11.551,30.2287 C11.734,30.0315 11.9575,29.8761 12.2063,29.7731 C12.4551,29.6701 12.7233,29.6221 12.9924,29.6322 C13.2539,29.6232 13.5142,29.6705 13.7557,29.7708 C13.9973,29.8712 14.2143,30.0222 14.3922,30.2136 C14.7791,30.6705 14.974,31.259 14.9363,31.856 L14.9363,32.0487 L11.74,32.0487 C11.7323,32.4411 11.8666,32.8231 12.1183,33.1247 C12.2319,33.2469 12.3703,33.3437 12.5241,33.4088 C12.678,33.4739 12.8439,33.5057 13.011,33.5022 C13.2548,33.5104 13.4944,33.4373 13.6919,33.2944 C13.9039,33.1185 14.0603,32.885 14.1421,32.6223 L14.1613,32.6118 Z M11.7815,31.4517 L14.1687,31.4517 C14.1601,31.1597 14.0639,30.8769 13.8926,30.64 C13.7862,30.5054 13.6497,30.3973 13.494,30.3246 C13.3384,30.2518 13.1679,30.2163 12.9961,30.2209 C12.8405,30.2164 12.6856,30.2439 12.5411,30.3017 C12.3966,30.3596 12.2656,30.4464 12.1561,30.5569 C11.9207,30.7964 11.7857,31.1164 11.7785,31.4517 L11.7815,31.4517 Z" id="Shape" fill-rule="nonzero"></path>
            <path d="M23.4037,32.6116 L24.1604,32.7097 C24.0582,33.1118 23.8225,33.4675 23.4918,33.7187 C23.1374,33.9759 22.7077,34.1086 22.2698,34.0962 C21.9952,34.1097 21.7208,34.0651 21.4647,33.9656 C21.2085,33.8661 20.9762,33.7138 20.7829,33.5186 C20.3951,33.0709 20.1982,32.4895 20.2344,31.8988 C20.195,31.2919 20.3931,30.6935 20.7868,30.2295 C20.9711,30.033 21.1954,29.8781 21.4447,29.7752 C21.6939,29.6723 21.9623,29.6238 22.2319,29.6329 C22.4933,29.624 22.7536,29.6713 22.9952,29.7716 C23.2367,29.8719 23.4538,30.0229 23.6316,30.2144 C24.0109,30.6714 24.2002,31.2562 24.1604,31.8483 C24.1604,31.8899 24.1604,31.954 24.1604,32.0408 L20.9712,32.0408 C20.9701,32.436 21.1126,32.8183 21.3722,33.1168 C21.4859,33.239 21.6242,33.3358 21.7781,33.4009 C21.9319,33.466 22.0979,33.4978 22.2649,33.4943 C22.5086,33.5014 22.7478,33.4284 22.9459,33.2865 C23.1625,33.1121 23.3219,32.8771 23.4037,32.6116 Z M21.0131,31.4523 L23.4037,31.4523 C23.3978,31.1603 23.3027,30.8772 23.1313,30.6405 C23.0246,30.5061 22.8881,30.3983 22.7325,30.3255 C22.5769,30.2528 22.4065,30.2171 22.2347,30.2214 C22.0791,30.2169 21.9242,30.2445 21.7797,30.3023 C21.6352,30.3601 21.5042,30.447 21.3948,30.5575 C21.1607,30.7979 21.0257,31.1172 21.0165,31.4523 L21.0131,31.4523 Z" id="Shape" fill-rule="nonzero"></path>
        </g>
    </g>
</svg>